  0
SECTION
  2
HEADER
  9
$ACADVER
  1
AC1012
  9
$DWGCODEPAGE
  3
undefined
  9
$INSBASE
 10
0.0
 20
0.0
 30
0.0
  9
$EXTMIN
 10
1.000000000000000E+20
 20
1.000000000000000E+20
 30
1.000000000000000E+20
  9
$EXTMAX
 10
-1.000000000000000E+20
 20
-1.000000000000000E+20
 30
-1.000000000000000E+20
  9
$LIMMIN
 10
0.0
 20
0.0
  9
$LIMMAX
 10
12.0
 20
9.0
  9
$ORTHOMODE
 70
     0
  9
$REGENMODE
 70
     1
  9
$FILLMODE
 70
     1
  9
$QTEXTMODE
 70
     0
  9
$MIRRTEXT
 70
     1
  9
$DRAGMODE
 70
     2
  9
$LTSCALE
 40
1.0
  9
$OSMODE
 70
    37
  9
$ATTMODE
 70
     1
  9
$TEXTSIZE
 40
0.2
  9
$TRACEWID
 40
0.05
  9
$TEXTSTYLE
  7
STANDARD
  9
$CLAYER
  8
0
  9
$CELTYPE
  6
BYLAYER
  9
$CECOLOR
 62
   256
  9
$CELTSCALE
 40
1.0
  9
$DELOBJ
 70
     1
  9
$DISPSILH
 70
     0
  9
$DIMSCALE
 40
1.0
  9
$DIMASZ
 40
0.18
  9
$DIMEXO
 40
0.0625
  9
$DIMDLI
 40
0.38
  9
$DIMRND
 40
0.0
  9
$DIMDLE
 40
0.0
  9
$DIMEXE
 40
0.18
  9
$DIMTP
 40
0.0
  9
$DIMTM
 40
0.0
  9
$DIMTXT
 40
0.18
  9
$DIMCEN
 40
0.09
  9
$DIMTSZ
 40
0.0
  9
$DIMTOL
 70
     0
  9
$DIMLIM
 70
     0
  9
$DIMTIH
 70
     1
  9
$DIMTOH
 70
     1
  9
$DIMSE1
 70
     0
  9
$DIMSE2
 70
     0
  9
$DIMTAD
 70
     0
  9
$DIMZIN
 70
     0
  9
$DIMBLK
  1

  9
$DIMASO
 70
     1
  9
$DIMSHO
 70
     1
  9
$DIMPOST
  1

  9
$DIMAPOST
  1

  9
$DIMALT
 70
     0
  9
$DIMALTD
 70
     2
  9
$DIMALTF
 40
25.4
  9
$DIMLFAC
 40
1.0
  9
$DIMTOFL
 70
     0
  9
$DIMTVP
 40
0.0
  9
$DIMTIX
 70
     0
  9
$DIMSOXD
 70
     0
  9
$DIMSAH
 70
     0
  9
$DIMBLK1
  1

  9
$DIMBLK2
  1

  9
$DIMSTYLE
  2
STANDARD
  9
$DIMCLRD
 70
     0
  9
$DIMCLRE
 70
     0
  9
$DIMCLRT
 70
     0
  9
$DIMTFAC
 40
1.0
  9
$DIMGAP
 40
0.09
  9
$DIMJUST
 70
     0
  9
$DIMSD1
 70
     0
  9
$DIMSD2
 70
     0
  9
$DIMTOLJ
 70
     1
  9
$DIMTZIN
 70
     0
  9
$DIMALTZ
 70
     0
  9
$DIMALTTZ
 70
     0
  9
$DIMFIT
 70
     3
  9
$DIMUPT
 70
     0
  9
$DIMUNIT
 70
     2
  9
$DIMDEC
 70
     4
  9
$DIMTDEC
 70
     4
  9
$DIMALTU
 70
     2
  9
$DIMALTTD
 70
     2
  9
$DIMTXSTY
  7
STANDARD
  9
$DIMAUNIT
 70
     0
  9
$LUNITS
 70
     2
  9
$LUPREC
 70
     4
  9
$SKETCHINC
 40
0.1
  9
$FILLETRAD
 40
0.5
  9
$AUNITS
 70
     0
  9
$AUPREC
 70
     0
  9
$MENU
  1
.
  9
$ELEVATION
 40
0.0
  9
$PELEVATION
 40
0.0
  9
$THICKNESS
 40
0.0
  9
$LIMCHECK
 70
     0
  9
$CHAMFERA
 40
0.5
  9
$CHAMFERB
 40
0.5
  9
$CHAMFERC
 40
1.0
  9
$CHAMFERD
 40
0.0
  9
$SKPOLY
 70
     0
  9
$TDCREATE
 40
2457198.669722222
  9
$TDUPDATE
 40
2457198.669722222
  9
$TDINDWG
 40
0.0000000116
  9
$TDUSRTIMER
 40
0.0000000116
  9
$USRTIMER
 70
     1
  9
$ANGBASE
 50
0.0
  9
$ANGDIR
 70
     0
  9
$PDMODE
 70
     0
  9
$PDSIZE
 40
0.0
  9
$PLINEWID
 40
0.0
  9
$COORDS
 70
     1
  9
$SPLFRAME
 70
     0
  9
$SPLINETYPE
 70
     6
  9
$SPLINESEGS
 70
     8
  9
$ATTDIA
 70
     0
  9
$ATTREQ
 70
     1
  9
$HANDLING
 70
     1
  9
$HANDSEED
  5
56
  9
$SURFTAB1
 70
     6
  9
$SURFTAB2
 70
     6
  9
$SURFTYPE
 70
     6
  9
$SURFU
 70
     6
  9
$SURFV
 70
     6
  9
$UCSNAME
  2

  9
$UCSORG
 10
0.0
 20
0.0
 30
0.0
  9
$UCSXDIR
 10
1.0
 20
0.0
 30
0.0
  9
$UCSYDIR
 10
0.0
 20
1.0
 30
0.0
  9
$PUCSNAME
  2

  9
$PUCSORG
 10
0.0
 20
0.0
 30
0.0
  9
$PUCSXDIR
 10
1.0
 20
0.0
 30
0.0
  9
$PUCSYDIR
 10
0.0
 20
1.0
 30
0.0
  9
$USERI1
 70
     0
  9
$USERI2
 70
     0
  9
$USERI3
 70
     0
  9
$USERI4
 70
     0
  9
$USERI5
 70
     0
  9
$USERR1
 40
0.0
  9
$USERR2
 40
0.0
  9
$USERR3
 40
0.0
  9
$USERR4
 40
0.0
  9
$USERR5
 40
0.0
  9
$WORLDVIEW
 70
     1
  9
$SHADEDGE
 70
     3
  9
$SHADEDIF
 70
    70
  9
$TILEMODE
 70
     1
  9
$MAXACTVP
 70
    64
  9
$PINSBASE
 10
0.0
 20
0.0
 30
0.0
  9
$PLIMCHECK
 70
     0
  9
$PEXTMIN
 10
1.000000000000000E+20
 20
1.000000000000000E+20
 30
1.000000000000000E+20
  9
$PEXTMAX
 10
-1.000000000000000E+20
 20
-1.000000000000000E+20
 30
-1.000000000000000E+20
  9
$PLIMMIN
 10
0.0
 20
0.0
  9
$PLIMMAX
 10
12.0
 20
9.0
  9
$UNITMODE
 70
     0
  9
$VISRETAIN
 70
     1
  9
$PLINEGEN
 70
     0
  9
$PSLTSCALE
 70
     1
  9
$TREEDEPTH
 70
  3020
  9
$PICKSTYLE
 70
     1
  9
$CMLSTYLE
  2
STANDARD
  9
$CMLJUST
 70
     0
  9
$CMLSCALE
 40
1.0
  9
$SAVEIMAGES
 70
     1
  0
ENDSEC
  0
SECTION
  2
CLASSES
  0
CLASS
  1
ACDBDICTIONARYWDFLT
  2
AcDbDictionaryWithDefault
  3
ObjectDBX Classes
 90
    32768
280
     0
281
     0
  0
CLASS
  1
VISUALSTYLE
  2
AcDbVisualStyle
  3
ObjectDBX Classes
 90
     4095
280
     0
281
     0
  0
CLASS
  1
MATERIAL
  2
AcDbMaterial
  3
ObjectDBX Classes
 90
     1153
280
     0
281
     0
  0
CLASS
  1
SUN
  2
AcDbSun
  3
SCENEOE
 90
     1024
280
     0
281
     0
  0
CLASS
  1
DICTIONARYVAR
  2
AcDbDictionaryVar
  3
ObjectDBX Classes
 90
        0
280
     0
281
     0
  0
CLASS
  1
XRECORD
  2
AcDbXrecord
  3
AutoCAD 2000
 90
    32768
280
     0
281
     0
  0
CLASS
  1
LWPOLYLINE
  2
AcDbPolyline
  3
AutoCAD 2000
 90
    32768
280
     0
281
     1
  0
CLASS
  1
HATCH
  2
AcDbHatch
  3
AutoCAD 2000
 90
    32768
280
     0
281
     1
  0
CLASS
  1
ACDBPLACEHOLDER
  2
AcDbPlaceHolder
  3
ObjectDBX Classes
 90
        0
280
     0
281
     0
  0
CLASS
  1
LAYOUT
  2
AcDbLayout
  3
ObjectDBX Classes
 90
        0
280
     0
281
     0
  0
ENDSEC
  0
SECTION
  2
TABLES
  0
TABLE
  2
VPORT
  5
8
330
0
100
AcDbSymbolTable
 70
     1
  0
VPORT
  5
29
330
8
100
AcDbSymbolTableRecord
100
AcDbViewportTableRecord
  2
*ACTIVE
 70
     0
 10
0.0
 20
0.0
 11
1.0
 21
1.0
 12
0.0
 22
0.0
 13
0.0
 23
0.0
 14
0.5
 24
0.5
 15
0.5
 25
0.5
 16
0.0
 26
0.0
 36
1.0
 17
148.5000416295416
 27
-105.0007777515277
 37
0.0
 40
210.0015555030554
 41
1.414275634995294
 42
50.0
 43
0.0
 44
0.0
 50
0.0
 51
0.0
 71
     0
 72
   100
 73
     1
 74
     3
 75
     0
 76
     0
 77
     0
 78
     0
  0
ENDTAB
  0
TABLE
  2
LTYPE
  5
5
330
0
100
AcDbSymbolTable
 70
     1
  0
LTYPE
  5
14
330
5
100
AcDbSymbolTableRecord
100
AcDbLinetypeTableRecord
  2
BYBLOCK
 70
     0
  3

 72
    65
 73
     0
 40
0.0
  0
LTYPE
  5
15
330
5
100
AcDbSymbolTableRecord
100
AcDbLinetypeTableRecord
  2
BYLAYER
 70
     0
  3

 72
    65
 73
     0
 40
0.0
  0
LTYPE
  5
16
330
5
100
AcDbSymbolTableRecord
100
AcDbLinetypeTableRecord
  2
CONTINUOUS
 70
     0
  3
Solid line
 72
    65
 73
     0
 40
0.0
  0
ENDTAB
  0
TABLE
  2
LAYER
  5
2
330
0
100
AcDbSymbolTable
 70
     2
  0
LAYER
  5
10
330
2
100
AcDbSymbolTableRecord
100
AcDbLayerTableRecord
  2
0
 70
     0
 62
     7
  6
CONTINUOUS
  0
LAYER
  5
40
330
2
100
AcDbSymbolTableRecord
100
AcDbLayerTableRecord
  2
LAYER_1
 70
     0
 62
     7
  6
CONTINUOUS
  0
ENDTAB
  0
TABLE
  2
STYLE
  5
3
330
0
100
AcDbSymbolTable
 70
     1
  0
STYLE
  5
11
330
3
100
AcDbSymbolTableRecord
100
AcDbTextStyleTableRecord
  2
STANDARD
 70
     0
 40
0.0
 41
1.0
 50
0.0
 71
     0
 42
0.2
  3
txt
  4

  0
ENDTAB
  0
TABLE
  2
VIEW
  5
6
330
0
100
AcDbSymbolTable
 70
     0
  0
ENDTAB
  0
TABLE
  2
UCS
  5
7
330
0
100
AcDbSymbolTable
 70
     0
  0
ENDTAB
  0
TABLE
  2
APPID
  5
9
330
0
100
AcDbSymbolTable
 70
     1
  0
APPID
  5
12
330
9
100
AcDbSymbolTableRecord
100
AcDbRegAppTableRecord
  2
ACAD
 70
     0
  0
ENDTAB
  0
TABLE
  2
DIMSTYLE
  5
A
330
0
100
AcDbSymbolTable
 70
     1
  0
DIMSTYLE
105
27
330
A
100
AcDbSymbolTableRecord
100
AcDbDimStyleTableRecord
  2
STANDARD
 70
     0
  3

  4

  5

  6

  7

 40
1.0
 41
0.18
 42
0.0625
 43
0.38
 44
0.18
 45
0.0
 46
0.0
 47
0.0
 48
0.0
140
0.18
141
0.09
142
0.0
143
25.4
144
1.0
145
0.0
146
1.0
147
0.09
 71
     0
 72
     0
 73
     1
 74
     1
 75
     0
 76
     0
 77
     0
 78
     0
170
     0
171
     2
172
     0
173
     0
174
     0
175
     0
176
     0
177
     0
178
     0
270
     2
271
     4
272
     4
273
     2
274
     2
340
11
275
     0
280
     0
281
     0
282
     0
283
     1
284
     0
285
     0
286
     0
287
     3
288
     0
  0
ENDTAB
  0
TABLE
  2
BLOCK_RECORD
  5
1
330
0
100
AcDbSymbolTable
 70
     2
  0
BLOCK_RECORD
  5
1F
330
1
100
AcDbSymbolTableRecord
100
AcDbBlockTableRecord
  2
*MODEL_SPACE
  0
BLOCK_RECORD
  5
1B
330
1
100
AcDbSymbolTableRecord
100
AcDbBlockTableRecord
  2
*PAPER_SPACE
  0
BLOCK_RECORD
  5
41
330
1
100
AcDbSymbolTableRecord
100
AcDbBlockTableRecord
  2
BLOCK_2
  0
ENDTAB
  0
ENDSEC
  0
SECTION
  2
BLOCKS
  0
BLOCK
  5
20
330
1F
100
AcDbEntity
  8
0
100
AcDbBlockBegin
  2
*MODEL_SPACE
 70
     0
 10
0.0
 20
0.0
 30
0.0
  3
*MODEL_SPACE
  1

  0
ENDBLK
  5
21
330
1F
100
AcDbEntity
  8
0
100
AcDbBlockEnd
  0
BLOCK
  5
1C
330
1B
100
AcDbEntity
 67
     1
  8
0
100
AcDbBlockBegin
  2
*PAPER_SPACE
 70
     0
 10
0.0
 20
0.0
 30
0.0
  3
*PAPER_SPACE
  1

  0
ENDBLK
  5
1D
330
1B
100
AcDbEntity
 67
     1
  8
0
100
AcDbBlockEnd
  0
BLOCK
  5
43
330
41
100
AcDbEntity
  8
0
100
AcDbBlockBegin
  2
BLOCK_2
 70
     0
 10
0.0
 20
0.0
 30
0.0
  3
BLOCK_2
  1

  0
SPLINE
  5
45
330
41
100
AcDbEntity
  8
LAYER_1
 62
    40
100
AcDbSpline
210
0.0
220
0.0
230
1.0
 70
    11
 71
     3
 72
    56
 73
    52
 74
     0
 42
0.0000000001
 43
0.0000000001
 12
1.0
 22
0.0
 32
0.0
 13
1.0
 23
0.0
 33
0.0
 40
0.0
 40
0.0
 40
0.0
 40
0.0
 40
1.0
 40
1.0
 40
1.0
 40
2.0
 40
2.0
 40
2.0
 40
3.0
 40
3.0
 40
3.0
 40
4.0
 40
4.0
 40
4.0
 40
5.0
 40
5.0
 40
5.0
 40
6.0
 40
6.0
 40
6.0
 40
7.0
 40
7.0
 40
7.0
 40
8.0
 40
8.0
 40
8.0
 40
9.0
 40
9.0
 40
9.0
 40
10.0
 40
10.0
 40
10.0
 40
11.0
 40
11.0
 40
11.0
 40
12.0
 40
12.0
 40
12.0
 40
13.0
 40
13.0
 40
13.0
 40
14.0
 40
14.0
 40
14.0
 40
15.0
 40
15.0
 40
15.0
 40
16.0
 40
16.0
 40
16.0
 40
17.0
 40
17.0
 40
17.0
 40
17.0
 10
33.33659565410075
 20
-31.07958441063288
 30
0.0
 10
33.33659565410075
 20
-31.07958441063288
 30
0.0
 10
43.75684677725523
 20
-31.07958441063288
 30
0.0
 10
43.75684677725523
 20
-31.07958441063288
 30
0.0
 10
44.30909558354078
 20
-31.07958441063288
 30
0.0
 10
44.756785741849
 20
-30.63189425232467
 30
0.0
 10
44.756785741849
 20
-30.07964544603912
 30
0.0
 10
44.756785741849
 20
-30.07964544603912
 30
0.0
 10
44.756785741849
 20
-19.71699201302865
 30
0.0
 10
44.756785741849
 20
-19.71699201302865
 30
0.0
 10
45.98000995758052
 20
-19.30047996886195
 30
0.0
 10
46.86120078716708
 20
-18.14449971063315
 30
0.0
 10
46.86120078716708
 20
-16.78032802586134
 30
0.0
 10
46.86120078716708
 20
-16.61438208270621
 30
0.0
 10
46.84444901037006
 20
-16.45272097706087
 30
0.0
 10
46.81936440886808
 20
-16.29381594780372
 30
0.0
 10
46.11118196818141
 20
-16.35658128117561
 30
0.0
 10
45.41576791263694
 20
-16.46241030811313
 30
0.0
 10
44.73279926453295
 20
-16.60228118481427
 30
0.0
 10
44.06014437103791
 20
-16.74002040868392
 30
0.0
 10
43.40098994547571
 20
-16.91391160330191
 30
0.0
 10
42.75690781266147
 20
-17.12208149799813
 30
0.0
 10
42.10444979144872
 20
-17.33296440538898
 30
0.0
 10
41.46626738465297
 20
-17.57567138232483
 30
0.0
 10
40.84733444888105
 20
-17.85435807523476
 30
0.0
 10
41.17003223661504
 20
-18.72792663106021
 30
0.0
 10
41.8741020945662
 20
-19.41451262942372
 30
0.0
 10
42.75690781266147
 20
-19.71619533469769
 30
0.0
 10
42.75690781266147
 20
-19.71619533469769
 30
0.0
 10
42.75690781266147
 20
-29.07970648144535
 30
0.0
 10
42.75690781266147
 20
-29.07970648144535
 30
0.0
 10
42.75690781266147
 20
-29.07970648144535
 30
0.0
 10
33.30813055265387
 20
-29.07970648144535
 30
0.0
 10
33.30813055265387
 20
-29.07970648144535
 30
0.0
 10
33.00375636653205
 20
-28.22400935844964
 30
0.0
 10
32.33865915125779
 20
-27.53951194922406
 30
0.0
 10
31.49133791666059
 20
-27.2164050564012
 30
0.0
 10
31.2197352013422
 20
-27.82067480451402
 30
0.0
 10
30.98282029119093
 20
-28.44348347270684
 30
0.0
 10
30.77577005252741
 20
-29.07970648144535
 30
0.0
 10
30.56512399545117
 20
-29.72701839127701
 30
0.0
 10
30.38862744737246
 20
-30.38940259385664
 30
0.0
 10
30.24918720760698
 20
-31.06567483761119
 30
0.0
 10
30.1063449360498
 20
-31.75835434861423
 30
0.0
 10
29.99890102060358
 20
-32.4640390950741
 30
0.0
 10
29.93540360444106
 20
-33.182707545144
 30
0.0
 10
30.08321973260507
 20
-33.20430398746716
 30
0.0
 10
30.23321057729413
 20
-33.21920402544086
 30
0.0
 10
30.38703409071054
 20
-33.21920402544086
 30
0.0
 10
31.76444786125377
 20
-33.21920402544086
 30
0.0
 10
32.93059115116405
 20
-32.32134754644441
 30
0.0
 10
33.33659565410075
 20
-31.07958441063288
 30
0.0
  0
SPLINE
  5
46
330
41
100
AcDbEntity
  8
LAYER_1
 62
    40
100
AcDbSpline
210
0.0
220
0.0
230
1.0
 70
    11
 71
     3
 72
    56
 73
    52
 74
     0
 42
0.0000000001
 43
0.0000000001
 12
1.0
 22
0.0
 32
0.0
 13
1.0
 23
0.0
 33
0.0
 40
0.0
 40
0.0
 40
0.0
 40
0.0
 40
1.0
 40
1.0
 40
1.0
 40
2.0
 40
2.0
 40
2.0
 40
3.0
 40
3.0
 40
3.0
 40
4.0
 40
4.0
 40
4.0
 40
5.0
 40
5.0
 40
5.0
 40
6.0
 40
6.0
 40
6.0
 40
7.0
 40
7.0
 40
7.0
 40
8.0
 40
8.0
 40
8.0
 40
9.0
 40
9.0
 40
9.0
 40
10.0
 40
10.0
 40
10.0
 40
11.0
 40
11.0
 40
11.0
 40
12.0
 40
12.0
 40
12.0
 40
13.0
 40
13.0
 40
13.0
 40
14.0
 40
14.0
 40
14.0
 40
15.0
 40
15.0
 40
15.0
 40
16.0
 40
16.0
 40
16.0
 40
17.0
 40
17.0
 40
17.0
 40
17.0
 10
45.93190781186772
 20
-20.66075438936606
 30
0.0
 10
45.93190781186772
 20
-20.66075438936606
 30
0.0
 10
45.93190781186772
 20
-30.15009764871248
 30
0.0
 10
45.93190781186772
 20
-30.15009764871248
 30
0.0
 10
45.93190781186772
 20
-30.70234645499803
 30
0.0
 10
46.37959797017594
 20
-31.15003661330624
 30
0.0
 10
46.93184677646148
 20
-31.15003661330624
 30
0.0
 10
47.48409558274703
 20
-31.15003661330624
 30
0.0
 10
47.93195799582951
 20
-30.70234645499803
 30
0.0
 10
47.93195799582951
 20
-30.15009764871248
 30
0.0
 10
47.93195799582951
 20
-30.15009764871248
 30
0.0
 10
47.93195799582951
 20
-21.66069335395983
 30
0.0
 10
47.93195799582951
 20
-21.66069335395983
 30
0.0
 10
47.93195799582951
 20
-21.66069335395983
 30
0.0
 10
53.21087780787784
 20
-21.66069335395983
 30
0.0
 10
53.21087780787784
 20
-21.66069335395983
 30
0.0
 10
53.21087780787784
 20
-21.66069335395983
 30
0.0
 10
56.77379555872322
 20
-21.66069335395983
 30
0.0
 10
56.77379555872322
 20
-21.66069335395983
 30
0.0
 10
57.32604436500877
 20
-21.66069335395983
 30
0.0
 10
57.77390677809124
 20
-21.21300319565161
 30
0.0
 10
57.77390677809124
 20
-20.66075438936606
 30
0.0
 10
57.77390677809124
 20
-20.10850558308051
 30
0.0
 10
57.32604436500877
 20
-19.6608154247723
 30
0.0
 10
56.77379555872322
 20
-19.6608154247723
 30
0.0
 10
56.77379555872322
 20
-19.6608154247723
 30
0.0
 10
54.34543387855774
 20
-19.6608154247723
 30
0.0
 10
54.34543387855774
 20
-19.6608154247723
 30
0.0
 10
55.16366558815136
 20
-19.3369979810056
 30
0.0
 10
55.81472403932323
 20
-18.68223605218708
 30
0.0
 10
56.12054085917951
 20
-17.85435807523476
 30
0.0
 10
55.50160792340758
 20
-17.57567138232483
 30
0.0
 10
54.86342551661183
 20
-17.33298593723577
 30
0.0
 10
54.21098902724587
 20
-17.12210302984491
 30
0.0
 10
53.56679923519771
 20
-16.91389007145512
 30
0.0
 10
52.90755868224837
 20
-16.73999887683714
 30
0.0
 10
52.23479612951943
 20
-16.60223812112071
 30
0.0
 10
51.55191360880256
 20
-16.46241030811313
 30
0.0
 10
50.85658568064523
 20
-16.35658128117561
 30
0.0
 10
50.14848936734569
 20
-16.29381594780372
 30
0.0
 10
50.12340476584372
 20
-16.45272097706087
 30
0.0
 10
50.10665298904669
 20
-16.61438208270621
 30
0.0
 10
50.10665298904669
 20
-16.78032802586134
 30
0.0
 10
50.10665298904669
 20
-18.08683742494878
 30
0.0
 10
50.91478626249917
 20
-19.20272538446798
 30
0.0
 10
52.05758903049689
 20
-19.6608154247723
 30
0.0
 10
52.05758903049689
 20
-19.6608154247723
 30
0.0
 10
46.93184677646148
 20
-19.6608154247723
 30
0.0
 10
46.93184677646148
 20
-19.6608154247723
 30
0.0
 10
46.37959797017594
 20
-19.6608154247723
 30
0.0
 10
45.93190781186772
 20
-20.10850558308051
 30
0.0
 10
45.93190781186772
 20
-20.66075438936606
 30
0.0
  0
SPLINE
  5
47
330
41
100
AcDbEntity
  8
LAYER_1
 62
    40
100
AcDbSpline
210
0.0
220
0.0
230
1.0
 70
    11
 71
     3
 72
    23
 73
    19
 74
     0
 42
0.0000000001
 43
0.0000000001
 12
1.0
 22
0.0
 32
0.0
 13
1.0
 23
0.0
 33
0.0
 40
0.0
 40
0.0
 40
0.0
 40
0.0
 40
1.0
 40
1.0
 40
1.0
 40
2.0
 40
2.0
 40
2.0
 40
3.0
 40
3.0
 40
3.0
 40
4.0
 40
4.0
 40
4.0
 40
5.0
 40
5.0
 40
5.0
 40
6.0
 40
6.0
 40
6.0
 40
6.0
 10
49.07125107280164
 20
-39.56916096015979
 30
0.0
 10
49.07125107280164
 20
-39.56916096015979
 30
0.0
 10
49.07125107280164
 20
-45.24840086759415
 30
0.0
 10
49.07125107280164
 20
-45.24840086759415
 30
0.0
 10
49.07125107280164
 20
-45.8006496738797
 30
0.0
 10
49.51911348588411
 20
-46.24851208696218
 30
0.0
 10
50.07136229216966
 20
-46.24851208696218
 30
0.0
 10
50.62361109845521
 20
-46.24851208696218
 30
0.0
 10
51.07147351153769
 20
-45.8006496738797
 30
0.0
 10
51.07147351153769
 20
-45.24840086759415
 30
0.0
 10
51.07147351153769
 20
-45.24840086759415
 30
0.0
 10
51.07147351153769
 20
-39.56916096015979
 30
0.0
 10
51.07147351153769
 20
-39.56916096015979
 30
0.0
 10
51.07147351153769
 20
-39.01691215387424
 30
0.0
 10
50.62361109845521
 20
-38.56904974079177
 30
0.0
 10
50.07136229216966
 20
-38.56904974079177
 30
0.0
 10
49.51911348588411
 20
-38.56904974079177
 30
0.0
 10
49.07125107280164
 20
-39.01691215387424
 30
0.0
 10
49.07125107280164
 20
-39.56916096015979
 30
0.0
  0
SPLINE
  5
48
330
41
100
AcDbEntity
  8
LAYER_1
 62
    40
100
AcDbSpline
210
0.0
220
0.0
230
1.0
 70
    11
 71
     3
 72
    47
 73
    43
 74
     0
 42
0.0000000001
 43
0.0000000001
 12
1.0
 22
0.0
 32
0.0
 13
1.0
 23
0.0
 33
0.0
 40
0.0
 40
0.0
 40
0.0
 40
0.0
 40
1.0
 40
1.0
 40
1.0
 40
2.0
 40
2.0
 40
2.0
 40
3.0
 40
3.0
 40
3.0
 40
4.0
 40
4.0
 40
4.0
 40
5.0
 40
5.0
 40
5.0
 40
6.0
 40
6.0
 40
6.0
 40
7.0
 40
7.0
 40
7.0
 40
8.0
 40
8.0
 40
8.0
 40
9.0
 40
9.0
 40
9.0
 40
10.0
 40
10.0
 40
10.0
 40
11.0
 40
11.0
 40
11.0
 40
12.0
 40
12.0
 40
12.0
 40
13.0
 40
13.0
 40
13.0
 40
14.0
 40
14.0
 40
14.0
 40
14.0
 10
56.31525334963646
 20
-44.24828964822613
 30
0.0
 10
55.76300454335092
 20
-44.24828964822613
 30
0.0
 10
55.31514213026844
 20
-44.6961520613086
 30
0.0
 10
55.31514213026844
 20
-45.24840086759415
 30
0.0
 10
55.31514213026844
 20
-45.24840086759415
 30
0.0
 10
55.31514213026844
 20
-48.21290553265164
 30
0.0
 10
55.31514213026844
 20
-48.21290553265164
 30
0.0
 10
55.31514213026844
 20
-48.21290553265164
 30
0.0
 10
54.14159188506486
 20
-49.83724652210015
 30
0.0
 10
54.14159188506486
 20
-49.83724652210015
 30
0.0
 10
53.84772524017306
 20
-49.74476724016797
 30
0.0
 10
53.53555652551585
 20
-49.69339225374419
 30
0.0
 10
53.21098546711175
 20
-49.69339225374419
 30
0.0
 10
51.49651216703039
 20
-49.69339225374419
 30
0.0
 10
50.10665298904669
 20
-51.0832298998811
 30
0.0
 10
50.10665298904669
 20
-52.79772473180925
 30
0.0
 10
50.10665298904669
 20
-53.00003796418055
 30
0.0
 10
50.12749581673245
 20
-53.19731274440467
 30
0.0
 10
50.16444446581175
 20
-53.38883852153778
 30
0.0
 10
50.87105508168328
 20
-53.32559948753666
 30
0.0
 10
51.56487578056581
 20
-53.21933982366348
 30
0.0
 10
52.24633719939501
 20
-53.07931822403486
 30
0.0
 10
53.11370458334701
 20
-52.90107759636675
 30
0.0
 10
53.95984156637115
 20
-52.66511008747391
 30
0.0
 10
54.77867616767469
 20
-52.37081280564645
 30
0.0
 10
55.24578805178101
 20
-52.20292899628087
 30
0.0
 10
55.70467477041628
 20
-52.01775511394869
 30
0.0
 10
56.15376449876538
 20
-51.81447294847217
 30
0.0
 10
56.058529140445
 20
-51.52943436076131
 30
0.0
 10
55.92167272229346
 20
-51.26390362623567
 30
0.0
 10
55.75292763905657
 20
-51.0223593690261
 30
0.0
 10
55.75292763905657
 20
-51.0223593690261
 30
0.0
 10
57.12588431731575
 20
-49.12206623120907
 30
0.0
 10
57.12588431731575
 20
-49.12206623120907
 30
0.0
 10
57.24887422613917
 20
-48.9515340046892
 30
0.0
 10
57.31536456900449
 20
-48.74655082331684
 30
0.0
 10
57.31536456900449
 20
-48.5363999987166
 30
0.0
 10
57.31536456900449
 20
-48.5363999987166
 30
0.0
 10
57.31536456900449
 20
-45.24840086759415
 30
0.0
 10
57.31536456900449
 20
-45.24840086759415
 30
0.0
 10
57.31536456900449
 20
-44.6961520613086
 30
0.0
 10
56.86750215592202
 20
-44.24828964822613
 30
0.0
 10
56.31525334963646
 20
-44.24828964822613
 30
0.0
  0
SPLINE
  5
49
330
41
100
AcDbEntity
  8
LAYER_1
 62
    40
100
AcDbSpline
210
0.0
220
0.0
230
1.0
 70
    11
 71
     3
 72
    98
 73
    94
 74
     0
 42
0.0000000001
 43
0.0000000001
 12
1.0
 22
0.0
 32
0.0
 13
1.0
 23
0.0
 33
0.0
 40
0.0
 40
0.0
 40
0.0
 40
0.0
 40
1.0
 40
1.0
 40
1.0
 40
2.0
 40
2.0
 40
2.0
 40
3.0
 40
3.0
 40
3.0
 40
4.0
 40
4.0
 40
4.0
 40
5.0
 40
5.0
 40
5.0
 40
6.0
 40
6.0
 40
6.0
 40
7.0
 40
7.0
 40
7.0
 40
8.0
 40
8.0
 40
8.0
 40
9.0
 40
9.0
 40
9.0
 40
10.0
 40
10.0
 40
10.0
 40
11.0
 40
11.0
 40
11.0
 40
12.0
 40
12.0
 40
12.0
 40
13.0
 40
13.0
 40
13.0
 40
14.0
 40
14.0
 40
14.0
 40
15.0
 40
15.0
 40
15.0
 40
16.0
 40
16.0
 40
16.0
 40
17.0
 40
17.0
 40
17.0
 40
18.0
 40
18.0
 40
18.0
 40
19.0
 40
19.0
 40
19.0
 40
20.0
 40
20.0
 40
20.0
 40
21.0
 40
21.0
 40
21.0
 40
22.0
 40
22.0
 40
22.0
 40
23.0
 40
23.0
 40
23.0
 40
24.0
 40
24.0
 40
24.0
 40
25.0
 40
25.0
 40
25.0
 40
26.0
 40
26.0
 40
26.0
 40
27.0
 40
27.0
 40
27.0
 40
28.0
 40
28.0
 40
28.0
 40
29.0
 40
29.0
 40
29.0
 40
30.0
 40
30.0
 40
30.0
 40
31.0
 40
31.0
 40
31.0
 40
31.0
 10
60.37219779306668
 20
-35.46467419903314
 30
0.0
 10
59.81994898678113
 20
-35.46467419903314
 30
0.0
 10
59.37208657369865
 20
-35.91253661211562
 30
0.0
 10
59.37208657369865
 20
-36.46478541840116
 30
0.0
 10
59.37208657369865
 20
-36.46478541840116
 30
0.0
 10
59.37208657369865
 20
-41.67308077300187
 30
0.0
 10
59.37208657369865
 20
-41.67308077300187
 30
0.0
 10
59.37208657369865
 20
-41.67308077300187
 30
0.0
 10
53.21087780787784
 20
-41.67308077300187
 30
0.0
 10
53.21087780787784
 20
-41.67308077300187
 30
0.0
 10
52.65862900159229
 20
-41.67308077300187
 30
0.0
 10
52.21076658850981
 20
-42.12094318608435
 30
0.0
 10
52.21076658850981
 20
-42.6731919923699
 30
0.0
 10
52.21076658850981
 20
-42.6731919923699
 30
0.0
 10
52.21076658850981
 20
-46.97824072899597
 30
0.0
 10
52.21076658850981
 20
-46.97824072899597
 30
0.0
 10
52.21076658850981
 20
-46.97824072899597
 30
0.0
 10
44.756785741849
 20
-46.97824072899597
 30
0.0
 10
44.756785741849
 20
-46.97824072899597
 30
0.0
 10
44.756785741849
 20
-46.97824072899597
 30
0.0
 10
44.756785741849
 20
-39.56916096015979
 30
0.0
 10
44.756785741849
 20
-39.56916096015979
 30
0.0
 10
44.756785741849
 20
-39.01691215387424
 30
0.0
 10
44.30909558354078
 20
-38.56904974079177
 30
0.0
 10
43.75684677725523
 20
-38.56904974079177
 30
0.0
 10
43.75684677725523
 20
-38.56904974079177
 30
0.0
 10
33.32369807787784
 20
-38.56904974079177
 30
0.0
 10
33.32369807787784
 20
-38.56904974079177
 30
0.0
 10
32.90714297001757
 20
-37.34582552506025
 30
0.0
 10
31.75120577548234
 20
-36.46465622732047
 30
0.0
 10
30.38703409071054
 20
-36.46465622732047
 30
0.0
 10
30.23321057729413
 20
-36.46465622732047
 30
0.0
 10
30.08321973260507
 20
-36.47955626529418
 30
0.0
 10
29.93540360444106
 20
-36.50115270761734
 30
0.0
 10
29.99784596011122
 20
-37.20791404641634
 30
0.0
 10
30.10320128641951
 20
-37.90197159561348
 30
0.0
 10
30.24242620771717
 20
-38.58364833291051
 30
0.0
 10
30.38048840928856
 20
-39.25966219450366
 30
0.0
 10
30.5550686230036
 20
-39.92206792893008
 30
0.0
 10
30.76425051449861
 20
-40.56927217952782
 30
0.0
 10
30.9738415110825
 20
-41.21770374539219
 30
0.0
 10
31.21478287658216
 20
-41.85211807900095
 30
0.0
 10
31.49135944850737
 20
-42.46745519636013
 30
0.0
 10
32.35048013514155
 20
-42.13984814755966
 30
0.0
 10
33.02412549358858
 20
-41.44172107932056
 30
0.0
 10
33.32236310337731
 20
-40.56927217952782
 30
0.0
 10
33.32236310337731
 20
-40.56927217952782
 30
0.0
 10
42.75690781266147
 20
-40.56927217952782
 30
0.0
 10
42.75690781266147
 20
-40.56927217952782
 30
0.0
 10
42.75690781266147
 20
-40.56927217952782
 30
0.0
 10
42.75690781266147
 20
-49.85907981473792
 30
0.0
 10
42.75690781266147
 20
-49.85907981473792
 30
0.0
 10
41.84257947087616
 20
-50.1707748287659
 30
0.0
 10
41.12053052086137
 20
-50.89721627552439
 30
0.0
 10
40.81411080929517
 20
-51.81447294847217
 30
0.0
 10
41.44350822260353
 20
-52.09936081325554
 30
0.0
 10
42.09275799864565
 20
-52.34736462449997
 30
0.0
 10
42.75690781266147
 20
-52.56205866877138
 30
0.0
 10
43.39437966851339
 20
-52.76813997432967
 30
0.0
 10
44.04670849864544
 20
-52.94035168489859
 30
0.0
 10
44.71217175531501
 20
-53.07746648521154
 30
0.0
 10
45.39660456900025
 20
-53.21847854979217
 30
0.0
 10
46.09356891751307
 20
-53.32531957352848
 30
0.0
 10
46.80340931040202
 20
-53.38883852153778
 30
0.0
 10
46.84035795948132
 20
-53.19731274440467
 30
0.0
 10
46.86120078716708
 20
-53.00003796418055
 30
0.0
 10
46.86120078716708
 20
-52.79772473180925
 30
0.0
 10
46.86120078716708
 20
-51.43355304703745
 30
0.0
 10
45.98000995758052
 20
-50.27757278880865
 30
0.0
 10
44.756785741849
 20
-49.86106074464194
 30
0.0
 10
44.756785741849
 20
-49.86106074464194
 30
0.0
 10
44.756785741849
 20
-48.97846316773202
 30
0.0
 10
44.756785741849
 20
-48.97846316773202
 30
0.0
 10
44.756785741849
 20
-48.97846316773202
 30
0.0
 10
53.21087780787784
 20
-48.97846316773202
 30
0.0
 10
53.21087780787784
 20
-48.97846316773202
 30
0.0
 10
53.76312661416339
 20
-48.97846316773202
 30
0.0
 10
54.21098902724587
 20
-48.53060075464955
 30
0.0
 10
54.21098902724587
 20
-47.97835194836399
 30
0.0
 10
54.21098902724587
 20
-47.97835194836399
 30
0.0
 10
54.21098902724587
 20
-43.67330321173792
 30
0.0
 10
54.21098902724587
 20
-43.67330321173792
 30
0.0
 10
54.21098902724587
 20
-43.67330321173792
 30
0.0
 10
60.37219779306668
 20
-43.67330321173792
 30
0.0
 10
60.37219779306668
 20
-43.67330321173792
 30
0.0
 10
60.92444659935222
 20
-43.67330321173792
 30
0.0
 10
61.37230901243471
 20
-43.22544079865545
 30
0.0
 10
61.37230901243471
 20
-42.6731919923699
 30
0.0
 10
61.37230901243471
 20
-42.6731919923699
 30
0.0
 10
61.37230901243471
 20
-36.46478541840116
 30
0.0
 10
61.37230901243471
 20
-36.46478541840116
 30
0.0
 10
61.37230901243471
 20
-35.91253661211562
 30
0.0
 10
60.92444659935222
 20
-35.46467419903314
 30
0.0
 10
60.37219779306668
 20
-35.46467419903314
 30
0.0
  0
SPLINE
  5
4A
330
41
100
AcDbEntity
  8
LAYER_1
 62
    40
100
AcDbSpline
210
0.0
220
0.0
230
1.0
 70
    11
 71
     3
 72
    83
 73
    79
 74
     0
 42
0.0000000001
 43
0.0000000001
 12
1.0
 22
0.0
 32
0.0
 13
1.0
 23
0.0
 33
0.0
 40
0.0
 40
0.0
 40
0.0
 40
0.0
 40
1.0
 40
1.0
 40
1.0
 40
2.0
 40
2.0
 40
2.0
 40
3.0
 40
3.0
 40
3.0
 40
4.0
 40
4.0
 40
4.0
 40
5.0
 40
5.0
 40
5.0
 40
6.0
 40
6.0
 40
6.0
 40
7.0
 40
7.0
 40
7.0
 40
8.0
 40
8.0
 40
8.0
 40
9.0
 40
9.0
 40
9.0
 40
10.0
 40
10.0
 40
10.0
 40
11.0
 40
11.0
 40
11.0
 40
12.0
 40
12.0
 40
12.0
 40
13.0
 40
13.0
 40
13.0
 40
14.0
 40
14.0
 40
14.0
 40
15.0
 40
15.0
 40
15.0
 40
16.0
 40
16.0
 40
16.0
 40
17.0
 40
17.0
 40
17.0
 40
18.0
 40
18.0
 40
18.0
 40
19.0
 40
19.0
 40
19.0
 40
20.0
 40
20.0
 40
20.0
 40
21.0
 40
21.0
 40
21.0
 40
22.0
 40
22.0
 40
22.0
 40
23.0
 40
23.0
 40
23.0
 40
24.0
 40
24.0
 40
24.0
 40
25.0
 40
25.0
 40
25.0
 40
26.0
 40
26.0
 40
26.0
 40
26.0
 10
55.77368433935519
 20
-30.15009764871248
 30
0.0
 10
55.77368433935519
 20
-30.15009764871248
 30
0.0
 10
55.77368433935519
 20
-32.46899141983414
 30
0.0
 10
55.77368433935519
 20
-32.46899141983414
 30
0.0
 10
55.77368433935519
 20
-32.46899141983414
 30
0.0
 10
50.30995668636999
 20
-32.46899141983414
 30
0.0
 10
50.30995668636999
 20
-32.46899141983414
 30
0.0
 10
50.30995668636999
 20
-32.46899141983414
 30
0.0
 10
50.98396808621234
 20
-30.46945800019514
 30
0.0
 10
50.98396808621234
 20
-30.46945800019514
 30
0.0
 10
51.01841904106485
 20
-30.36662189996043
 30
0.0
 10
51.03633353758814
 20
-30.25879041127211
 30
0.0
 10
51.03633353758814
 20
-30.15009764871248
 30
0.0
 10
51.03633353758814
 20
-30.15009764871248
 30
0.0
 10
51.03633353758814
 20
-27.7724649995673
 30
0.0
 10
51.03633353758814
 20
-27.7724649995673
 30
0.0
 10
51.03633353758814
 20
-27.22021619328175
 30
0.0
 10
50.58847112450566
 20
-26.77252603497354
 30
0.0
 10
50.03622231822011
 20
-26.77252603497354
 30
0.0
 10
49.48397351193456
 20
-26.77252603497354
 30
0.0
 10
49.03611109885208
 20
-27.22021619328175
 30
0.0
 10
49.03611109885208
 20
-27.7724649995673
 30
0.0
 10
49.03611109885208
 20
-27.7724649995673
 30
0.0
 10
49.03611109885208
 20
-29.98611110361459
 30
0.0
 10
49.03611109885208
 20
-29.98611110361459
 30
0.0
 10
49.03611109885208
 20
-29.98611110361459
 30
0.0
 10
45.91364880579589
 20
-39.24980060867713
 30
0.0
 10
45.91364880579589
 20
-39.24980060867713
 30
0.0
 10
45.90746916576923
 20
-39.26814574213609
 30
0.0
 10
45.90604806388156
 20
-39.28674925775644
 30
0.0
 10
45.9009880798876
 20
-39.30518051860253
 30
0.0
 10
45.89172938577099
 20
-39.33892092251119
 30
0.0
 10
45.88328890183213
 20
-39.37259673087951
 30
0.0
 10
45.8775614305879
 20
-39.40765057744193
 30
0.0
 10
45.87172630010976
 20
-39.44302740170608
 30
0.0
 10
45.86892716002799
 20
-39.47795205718781
 30
0.0
 10
45.8669246982772
 20
-39.51317815852448
 30
0.0
 10
45.86586963778484
 20
-39.5320831199998
 30
0.0
 10
45.8612833544201
 20
-39.54999761652309
 30
0.0
 10
45.8612833544201
 20
-39.56916096015979
 30
0.0
 10
45.8612833544201
 20
-39.56916096015979
 30
0.0
 10
45.8612833544201
 20
-41.94662135453071
 30
0.0
 10
45.8612833544201
 20
-41.94662135453071
 30
0.0
 10
45.8612833544201
 20
-42.49887016081626
 30
0.0
 10
46.30897351272831
 20
-42.94673257389874
 30
0.0
 10
46.86122231901386
 20
-42.94673257389874
 30
0.0
 10
47.41347112529941
 20
-42.94673257389874
 30
0.0
 10
47.86133353838189
 20
-42.49887016081626
 30
0.0
 10
47.86133353838189
 20
-41.94662135453071
 30
0.0
 10
47.86133353838189
 20
-41.94662135453071
 30
0.0
 10
47.86133353838189
 20
-39.73316903710447
 30
0.0
 10
47.86133353838189
 20
-39.73316903710447
 30
0.0
 10
47.86133353838189
 20
-39.73316903710447
 30
0.0
 10
49.63583762729373
 20
-34.46886934902167
 30
0.0
 10
49.63583762729373
 20
-34.46886934902167
 30
0.0
 10
49.63583762729373
 20
-34.46886934902167
 30
0.0
 10
56.77379555872322
 20
-34.46886934902167
 30
0.0
 10
56.77379555872322
 20
-34.46886934902167
 30
0.0
 10
57.32604436500877
 20
-34.46886934902167
 30
0.0
 10
57.77390677809124
 20
-34.02117919071345
 30
0.0
 10
57.77390677809124
 20
-33.46893038442791
 30
0.0
 10
57.77390677809124
 20
-33.46893038442791
 30
0.0
 10
57.77390677809124
 20
-31.15003661330624
 30
0.0
 10
57.77390677809124
 20
-31.15003661330624
 30
0.0
 10
57.77390677809124
 20
-31.15003661330624
 30
0.0
 10
60.40733776701622
 20
-31.15003661330624
 30
0.0
 10
60.40733776701622
 20
-31.15003661330624
 30
0.0
 10
60.95958657330177
 20
-31.15003661330624
 30
0.0
 10
61.40744898638425
 20
-30.70234645499803
 30
0.0
 10
61.40744898638425
 20
-30.15009764871248
 30
0.0
 10
61.40744898638425
 20
-29.59784884242693
 30
0.0
 10
60.95958657330177
 20
-29.15015868411871
 30
0.0
 10
60.40733776701622
 20
-29.15015868411871
 30
0.0
 10
60.40733776701622
 20
-29.15015868411871
 30
0.0
 10
56.77379555872322
 20
-29.15015868411871
 30
0.0
 10
56.77379555872322
 20
-29.15015868411871
 30
0.0
 10
56.22154675243767
 20
-29.15015868411871
 30
0.0
 10
55.77368433935519
 20
-29.59784884242693
 30
0.0
 10
55.77368433935519
 20
-30.15009764871248
 30
0.0
  0
ENDBLK
  5
44
330
41
100
AcDbEntity
  8
0
100
AcDbBlockEnd
  0
ENDSEC
  0
SECTION
  2
ENTITIES
  0
INSERT
  5
42
330
1F
100
AcDbEntity
  8
LAYER_1
100
AcDbBlockReference
  2
BLOCK_2
 10
0.0
 20
0.0
 30
0.0
  0
ENDSEC
  0
SECTION
  2
OBJECTS
  0
DICTIONARY
  5
C
330
0
100
AcDbDictionary
  3
ACAD_GROUP
350
D
  3
ACAD_LAYOUT
350
1A
  3
ACAD_MATERIAL
350
3B
  3
ACAD_MLEADERSTYLE
350
4D
  3
ACAD_MLINESTYLE
350
17
  3
ACAD_PLOTSETTINGS
350
19
  3
ACAD_VISUALSTYLE
350
2A
  3
ACDBVARIABLEDICTIONARY
350
4B
1001
ACAD
1000
TREAT_AS_HARD
1070
     0
  0
DICTIONARY
  5
D
102
{ACAD_REACTORS
330
C
102
}
330
C
100
AcDbDictionary
1001
ACAD
1000
TREAT_AS_HARD
1070
     0
  0
DICTIONARY
  5
1A
102
{ACAD_REACTORS
330
C
102
}
330
C
100
AcDbDictionary
1001
ACAD
1000
TREAT_AS_HARD
1070
     0
  0
DICTIONARY
  5
3B
102
{ACAD_REACTORS
330
C
102
}
330
C
100
AcDbDictionary
  3
BYBLOCK
350
3D
  3
BYLAYER
350
3C
  3
GLOBAL
350
3E
1001
ACAD
1000
TREAT_AS_HARD
1070
     0
  0
DICTIONARY
  5
4D
102
{ACAD_REACTORS
330
C
102
}
330
C
100
AcDbDictionary
1001
ACAD
1000
TREAT_AS_HARD
1070
     0
  0
DICTIONARY
  5
17
102
{ACAD_REACTORS
330
C
102
}
330
C
100
AcDbDictionary
  3
STANDARD
350
18
1001
ACAD
1000
TREAT_AS_HARD
1070
     0
  0
DICTIONARY
  5
19
102
{ACAD_REACTORS
330
C
102
}
330
C
100
AcDbDictionary
1001
ACAD
1000
TREAT_AS_HARD
1070
     0
  0
DICTIONARY
  5
2A
102
{ACAD_REACTORS
330
C
102
}
330
C
100
AcDbDictionary
  3
2DWIREFRAME
350
2F
  3
3DWIREFRAME
350
30
  3
3D_HIDDEN
350
31
  3
BASIC
350
32
  3
BRIGHTEN
350
36
  3
COLORCHANGE
350
3A
  3
CONCEPTUAL
350
34
  3
DIM
350
35
  3
FACEPATTERN
350
39
  3
FLAT
350
2B
  3
FLATWITHEDGES
350
2C
  3
GOURAUD
350
2D
  3
GOURAUDWITHEDGES
350
2E
  3
LINEPATTERN
350
38
  3
REALISTIC
350
33
  3
THICKEN
350
37
1001
ACAD
1000
TREAT_AS_HARD
1070
     0
  0
DICTIONARY
  5
4B
102
{ACAD_REACTORS
330
C
102
}
330
C
100
AcDbDictionary
  3
DIMASSOC
350
4E
  3
HIDETEXT
350
4F
1001
ACAD
1000
TREAT_AS_HARD
1070
     0
  0
MATERIAL
  5
3D
102
{ACAD_REACTORS
330
3B
102
}
102
{ACAD_XDICTIONARY
360
52
102
}
330
3B
100
AcDbMaterial
  1
ByBlock
  0
MATERIAL
  5
3C
102
{ACAD_REACTORS
330
3B
102
}
102
{ACAD_XDICTIONARY
360
50
102
}
330
3B
100
AcDbMaterial
  1
ByLayer
  0
MATERIAL
  5
3E
102
{ACAD_REACTORS
330
3B
102
}
102
{ACAD_XDICTIONARY
360
54
102
}
330
3B
100
AcDbMaterial
  1
Global
  0
MLINESTYLE
  5
18
102
{ACAD_REACTORS
330
17
102
}
330
17
100
AcDbMlineStyle
  2
Standard
 70
     0
  3

 62
   256
 51
90.0
 52
90.0
 71
     2
 49
0.5
 62
   256
  6
BYLAYER
 49
-0.5
 62
   256
  6
BYLAYER
  0
ACAD_PROXY_OBJECT
  5
2F
102
{ACAD_REACTORS
330
2A
102
}
330
2A
100
AcDbZombieObject
 90
      499
 91
      501
 93
      436
310
42CC9915DA5C99599C985B595049028333333333333E3BF0000000000000FB0107901411070040501600405405064090741402480A0340
1001
ACAD
1000
AcDbSavedByObjectVersion
1070
     0
  0
ACAD_PROXY_OBJECT
  5
30
102
{ACAD_REACTORS
330
2A
102
}
330
2A
100
AcDbZombieObject
 90
      499
 91
      501
 93
      436
310
42CCD915DA5C99599C985B595059028333333333333E3BF0000000000000FB0107901411070040501600405405064090741402480A0340
1001
ACAD
1000
AcDbSavedByObjectVersion
1070
     0
  0
ACAD_PROXY_OBJECT
  5
31
102
{ACAD_REACTORS
330
2A
102
}
330
2A
100
AcDbZombieObject
 90
      499
 91
      501
 93
      500
310
424CD108121A5919195B90640502408333333333333E3BF0000000000000FB01079024090700405020000000000001110200405405064090740C02480A0340
1001
ACAD
1000
AcDbSavedByObjectVersion
1070
     0
  0
ACAD_PROXY_OBJECT
  5
32
102
{ACAD_REACTORS
330
2A
102
}
330
2A
100
AcDbZombieObject
 90
      499
 91
      501
 93
      388
310
4150985CDA58D07406404333333333333E3BF0000000000000FB0107A41107004050150841D405064090741402480A0350
1001
ACAD
1000
AcDbSavedByObjectVersion
1070
     0
  0
ACAD_PROXY_OBJECT
  5
36
102
{ACAD_REACTORS
330
2A
102
}
330
2A
100
AcDbZombieObject
 90
      499
 91
      501
 93
      428
310
42109C9A59DA1D195B90C409028333333333333E3BF0000000000000FB010790141107004050150841D405064090741402480A029950
1001
ACAD
1000
AcDbSavedByObjectVersion
1070
     0
  0
ACAD_PROXY_OBJECT
  5
3A
102
{ACAD_REACTORS
330
2A
102
}
330
2A
100
AcDbZombieObject
 90
      499
 91
      501
 93
      452
310
42D0DBDB1BDC90DA185B99D95104090240C333333333333E3BF0000000000000FB0108901411070040501508421405064090741402480A0350
1001
ACAD
1000
AcDbSavedByObjectVersion
1070
     0
  0
ACAD_PROXY_OBJECT
  5
34
102
{ACAD_REACTORS
330
2A
102
}
330
2A
100
AcDbZombieObject
 90
      499
 91
      501
 93
      500
310
4290DBDB98D95C1D1D585B10940D028333333333333E3BF0000000000000FB0107902409070040501000000000000111010841D405064090740C02480A0340
1001
ACAD
1000
AcDbSavedByObjectVersion
1070
     0
  0
ACAD_PROXY_OBJECT
  5
35
102
{ACAD_REACTORS
330
2A
102
}
330
2A
100
AcDbZombieObject
 90
      499
 91
      501
 93
      412
310
40D11A5B50B409028333333333333E3BF0000000000000FB010790141107004050150841D405064090741402480A02677FFFFFD0
1001
ACAD
1000
AcDbSavedByObjectVersion
1070
     0
  0
ACAD_PROXY_OBJECT
  5
39
102
{ACAD_REACTORS
330
2A
102
}
330
2A
100
AcDbZombieObject
 90
      499
 91
      501
 93
      444
310
42D19858D95C185D1D195C9B90F409028333333333333E3BF0000000000000FB010790141107004050150841D405064090741402480A0350
1001
ACAD
1000
AcDbSavedByObjectVersion
1070
     0
  0
ACAD_PROXY_OBJECT
  5
2B
102
{ACAD_REACTORS
330
2A
102
}
330
2A
100
AcDbZombieObject
 90
      499
 91
      501
 93
      388
310
41119B185D240901404333333333333E3BF0000000000000F9010740A41107004050150841D405064090741402480A1B50
1001
ACAD
1000
AcDbSavedByObjectVersion
1070
     0
  0
ACAD_PROXY_OBJECT
  5
2C
102
{ACAD_REACTORS
330
2A
102
}
330
2A
100
AcDbZombieObject
 90
      499
 91
      501
 93
      476
310
43519B185D15DA5D1A115919D95CD0140901404333333333333E3BF0000000000000F9010740901411070040501600405405064090741402480A1B50
1001
ACAD
1000
AcDbSavedByObjectVersion
1070
     0
  0
ACAD_PROXY_OBJECT
  5
2D
102
{ACAD_REACTORS
330
2A
102
}
330
2A
100
AcDbZombieObject
 90
      499
 91
      501
 93
      412
310
41D1DBDD5C985D5910240902404333333333333E3BF0000000000000F9010740A411070040501641D405064090741402480A1B50
1001
ACAD
1000
AcDbSavedByObjectVersion
1070
     0
  0
ACAD_PROXY_OBJECT
  5
2E
102
{ACAD_REACTORS
330
2A
102
}
330
2A
100
AcDbZombieObject
 90
      499
 91
      501
 93
      500
310
4411DBDD5C985D5915DA5D1A115919D95CD0340902404333333333333E3BF0000000000000F9010740901411070040501600405405064090741402480A1B50
1001
ACAD
1000
AcDbSavedByObjectVersion
1070
     0
  0
ACAD_PROXY_OBJECT
  5
38
102
{ACAD_REACTORS
330
2A
102
}
330
2A
100
AcDbZombieObject
 90
      499
 91
      501
 93
      444
310
42D31A5B995C185D1D195C9B90E409028333333333333E3BF0000000000000FB010790141107004050750841D405064090741402483A0350
1001
ACAD
1000
AcDbSavedByObjectVersion
1070
     0
  0
ACAD_PROXY_OBJECT
  5
33
102
{ACAD_REACTORS
330
2A
102
}
330
2A
100
AcDbZombieObject
 90
      499
 91
      501
 93
      420
310
425499585B1A5CDD1A58D08409028333333333333E3BF0000000000000FB01079019070040501508421405064090741402480A1B40
1001
ACAD
1000
AcDbSavedByObjectVersion
1070
     0
  0
ACAD_PROXY_OBJECT
  5
37
102
{ACAD_REACTORS
330
2A
102
}
330
2A
100
AcDbZombieObject
 90
      499
 91
      501
 93
      412
310
41D51A1A58DAD95B90D409028333333333333E3BF0000000000000FB010790141107004050150C41D405064090741402480A0350
1001
ACAD
1000
AcDbSavedByObjectVersion
1070
     0
  0
DICTIONARYVAR
  5
4E
102
{ACAD_REACTORS
330
4B
102
}
330
4B
100
DictionaryVariables
280
     0
  1
2
  0
DICTIONARYVAR
  5
4F
102
{ACAD_REACTORS
330
4B
102
}
330
4B
100
DictionaryVariables
280
     0
  1
1
  0
DICTIONARY
  5
52
330
3D
100
AcDbDictionary
  3
ACAD_XREC_ROUNDTRIP
360
53
1001
ACAD
1000
TREAT_AS_HARD
1070
     1
  0
DICTIONARY
  5
50
330
3C
100
AcDbDictionary
  3
ACAD_XREC_ROUNDTRIP
360
51
1001
ACAD
1000
TREAT_AS_HARD
1070
     1
  0
DICTIONARY
  5
54
330
3E
100
AcDbDictionary
  3
ACAD_XREC_ROUNDTRIP
360
55
1001
ACAD
1000
TREAT_AS_HARD
1070
     1
  0
XRECORD
  5
53
102
{ACAD_REACTORS
330
52
102
}
330
52
100
AcDbXrecord
102
MATERIAL
148
0.0
149
0.0
149
0.0
 93
        0
 94
      127
282
     0
 72
     1
 77
     1
171
     1
175
     1
179
     1
273
     0
  0
XRECORD
  5
51
102
{ACAD_REACTORS
330
50
102
}
330
50
100
AcDbXrecord
102
MATERIAL
148
0.0
149
0.0
149
0.0
 93
        0
 94
      127
282
     0
 72
     1
 77
     1
171
     1
175
     1
179
     1
273
     0
  0
XRECORD
  5
55
102
{ACAD_REACTORS
330
54
102
}
330
54
100
AcDbXrecord
102
MATERIAL
148
0.0
149
0.0
149
0.0
 93
        0
 94
      127
282
     0
 72
     1
 77
     1
171
     1
175
     1
179
     1
273
     0
  0
ENDSEC
  0
EOF
