  0
SECTION
  2
HEADER
  9
$ACADVER
  1
AC1012
  9
$DWGCODEPAGE
  3
undefined
  9
$INSBASE
 10
0.0
 20
0.0
 30
0.0
  9
$EXTMIN
 10
1.000000000000000E+20
 20
1.000000000000000E+20
 30
1.000000000000000E+20
  9
$EXTMAX
 10
-1.000000000000000E+20
 20
-1.000000000000000E+20
 30
-1.000000000000000E+20
  9
$LIMMIN
 10
0.0
 20
0.0
  9
$LIMMAX
 10
12.0
 20
9.0
  9
$ORTHOMODE
 70
     0
  9
$REGENMODE
 70
     1
  9
$FILLMODE
 70
     1
  9
$QTEXTMODE
 70
     0
  9
$MIRRTEXT
 70
     1
  9
$DRAGMODE
 70
     2
  9
$LTSCALE
 40
1.0
  9
$OSMODE
 70
    37
  9
$ATTMODE
 70
     1
  9
$TEXTSIZE
 40
0.2
  9
$TRACEWID
 40
0.05
  9
$TEXTSTYLE
  7
STANDARD
  9
$CLAYER
  8
0
  9
$CELTYPE
  6
BYLAYER
  9
$CECOLOR
 62
   256
  9
$CELTSCALE
 40
1.0
  9
$DELOBJ
 70
     1
  9
$DISPSILH
 70
     0
  9
$DIMSCALE
 40
1.0
  9
$DIMASZ
 40
0.18
  9
$DIMEXO
 40
0.0625
  9
$DIMDLI
 40
0.38
  9
$DIMRND
 40
0.0
  9
$DIMDLE
 40
0.0
  9
$DIMEXE
 40
0.18
  9
$DIMTP
 40
0.0
  9
$DIMTM
 40
0.0
  9
$DIMTXT
 40
0.18
  9
$DIMCEN
 40
0.09
  9
$DIMTSZ
 40
0.0
  9
$DIMTOL
 70
     0
  9
$DIMLIM
 70
     0
  9
$DIMTIH
 70
     1
  9
$DIMTOH
 70
     1
  9
$DIMSE1
 70
     0
  9
$DIMSE2
 70
     0
  9
$DIMTAD
 70
     0
  9
$DIMZIN
 70
     0
  9
$DIMBLK
  1

  9
$DIMASO
 70
     1
  9
$DIMSHO
 70
     1
  9
$DIMPOST
  1

  9
$DIMAPOST
  1

  9
$DIMALT
 70
     0
  9
$DIMALTD
 70
     2
  9
$DIMALTF
 40
25.4
  9
$DIMLFAC
 40
1.0
  9
$DIMTOFL
 70
     0
  9
$DIMTVP
 40
0.0
  9
$DIMTIX
 70
     0
  9
$DIMSOXD
 70
     0
  9
$DIMSAH
 70
     0
  9
$DIMBLK1
  1

  9
$DIMBLK2
  1

  9
$DIMSTYLE
  2
STANDARD
  9
$DIMCLRD
 70
     0
  9
$DIMCLRE
 70
     0
  9
$DIMCLRT
 70
     0
  9
$DIMTFAC
 40
1.0
  9
$DIMGAP
 40
0.09
  9
$DIMJUST
 70
     0
  9
$DIMSD1
 70
     0
  9
$DIMSD2
 70
     0
  9
$DIMTOLJ
 70
     1
  9
$DIMTZIN
 70
     0
  9
$DIMALTZ
 70
     0
  9
$DIMALTTZ
 70
     0
  9
$DIMFIT
 70
     3
  9
$DIMUPT
 70
     0
  9
$DIMUNIT
 70
     2
  9
$DIMDEC
 70
     4
  9
$DIMTDEC
 70
     4
  9
$DIMALTU
 70
     2
  9
$DIMALTTD
 70
     2
  9
$DIMTXSTY
  7
STANDARD
  9
$DIMAUNIT
 70
     0
  9
$LUNITS
 70
     2
  9
$LUPREC
 70
     4
  9
$SKETCHINC
 40
0.1
  9
$FILLETRAD
 40
0.5
  9
$AUNITS
 70
     0
  9
$AUPREC
 70
     0
  9
$MENU
  1
.
  9
$ELEVATION
 40
0.0
  9
$PELEVATION
 40
0.0
  9
$THICKNESS
 40
0.0
  9
$LIMCHECK
 70
     0
  9
$CHAMFERA
 40
0.5
  9
$CHAMFERB
 40
0.5
  9
$CHAMFERC
 40
1.0
  9
$CHAMFERD
 40
0.0
  9
$SKPOLY
 70
     0
  9
$TDCREATE
 40
2457198.66597221
  9
$TDUPDATE
 40
2457198.66597221
  9
$TDINDWG
 40
0.0000000116
  9
$TDUSRTIMER
 40
0.0000000116
  9
$USRTIMER
 70
     1
  9
$ANGBASE
 50
0.0
  9
$ANGDIR
 70
     0
  9
$PDMODE
 70
     0
  9
$PDSIZE
 40
0.0
  9
$PLINEWID
 40
0.0
  9
$COORDS
 70
     1
  9
$SPLFRAME
 70
     0
  9
$SPLINETYPE
 70
     6
  9
$SPLINESEGS
 70
     8
  9
$ATTDIA
 70
     0
  9
$ATTREQ
 70
     1
  9
$HANDLING
 70
     1
  9
$HANDSEED
  5
56
  9
$SURFTAB1
 70
     6
  9
$SURFTAB2
 70
     6
  9
$SURFTYPE
 70
     6
  9
$SURFU
 70
     6
  9
$SURFV
 70
     6
  9
$UCSNAME
  2

  9
$UCSORG
 10
0.0
 20
0.0
 30
0.0
  9
$UCSXDIR
 10
1.0
 20
0.0
 30
0.0
  9
$UCSYDIR
 10
0.0
 20
1.0
 30
0.0
  9
$PUCSNAME
  2

  9
$PUCSORG
 10
0.0
 20
0.0
 30
0.0
  9
$PUCSXDIR
 10
1.0
 20
0.0
 30
0.0
  9
$PUCSYDIR
 10
0.0
 20
1.0
 30
0.0
  9
$USERI1
 70
     0
  9
$USERI2
 70
     0
  9
$USERI3
 70
     0
  9
$USERI4
 70
     0
  9
$USERI5
 70
     0
  9
$USERR1
 40
0.0
  9
$USERR2
 40
0.0
  9
$USERR3
 40
0.0
  9
$USERR4
 40
0.0
  9
$USERR5
 40
0.0
  9
$WORLDVIEW
 70
     1
  9
$SHADEDGE
 70
     3
  9
$SHADEDIF
 70
    70
  9
$TILEMODE
 70
     1
  9
$MAXACTVP
 70
    64
  9
$PINSBASE
 10
0.0
 20
0.0
 30
0.0
  9
$PLIMCHECK
 70
     0
  9
$PEXTMIN
 10
1.000000000000000E+20
 20
1.000000000000000E+20
 30
1.000000000000000E+20
  9
$PEXTMAX
 10
-1.000000000000000E+20
 20
-1.000000000000000E+20
 30
-1.000000000000000E+20
  9
$PLIMMIN
 10
0.0
 20
0.0
  9
$PLIMMAX
 10
12.0
 20
9.0
  9
$UNITMODE
 70
     0
  9
$VISRETAIN
 70
     1
  9
$PLINEGEN
 70
     0
  9
$PSLTSCALE
 70
     1
  9
$TREEDEPTH
 70
  3020
  9
$PICKSTYLE
 70
     1
  9
$CMLSTYLE
  2
STANDARD
  9
$CMLJUST
 70
     0
  9
$CMLSCALE
 40
1.0
  9
$SAVEIMAGES
 70
     1
  0
ENDSEC
  0
SECTION
  2
CLASSES
  0
CLASS
  1
ACDBDICTIONARYWDFLT
  2
AcDbDictionaryWithDefault
  3
ObjectDBX Classes
 90
    32768
280
     0
281
     0
  0
CLASS
  1
VISUALSTYLE
  2
AcDbVisualStyle
  3
ObjectDBX Classes
 90
     4095
280
     0
281
     0
  0
CLASS
  1
MATERIAL
  2
AcDbMaterial
  3
ObjectDBX Classes
 90
     1153
280
     0
281
     0
  0
CLASS
  1
SUN
  2
AcDbSun
  3
SCENEOE
 90
     1024
280
     0
281
     0
  0
CLASS
  1
DICTIONARYVAR
  2
AcDbDictionaryVar
  3
ObjectDBX Classes
 90
        0
280
     0
281
     0
  0
CLASS
  1
XRECORD
  2
AcDbXrecord
  3
AutoCAD 2000
 90
    32768
280
     0
281
     0
  0
CLASS
  1
LWPOLYLINE
  2
AcDbPolyline
  3
AutoCAD 2000
 90
    32768
280
     0
281
     1
  0
CLASS
  1
HATCH
  2
AcDbHatch
  3
AutoCAD 2000
 90
    32768
280
     0
281
     1
  0
CLASS
  1
ACDBPLACEHOLDER
  2
AcDbPlaceHolder
  3
ObjectDBX Classes
 90
        0
280
     0
281
     0
  0
CLASS
  1
LAYOUT
  2
AcDbLayout
  3
ObjectDBX Classes
 90
        0
280
     0
281
     0
  0
ENDSEC
  0
SECTION
  2
TABLES
  0
TABLE
  2
VPORT
  5
8
330
0
100
AcDbSymbolTable
 70
     1
  0
VPORT
  5
29
330
8
100
AcDbSymbolTableRecord
100
AcDbViewportTableRecord
  2
*ACTIVE
 70
     0
 10
0.0
 20
0.0
 11
1.0
 21
1.0
 12
0.0
 22
0.0
 13
0.0
 23
0.0
 14
0.5
 24
0.5
 15
0.5
 25
0.5
 16
0.0
 26
0.0
 36
1.0
 17
148.5000416295416
 27
-105.0007777515277
 37
0.0
 40
210.0015555030554
 41
1.414275634995294
 42
50.0
 43
0.0
 44
0.0
 50
0.0
 51
0.0
 71
     0
 72
   100
 73
     1
 74
     3
 75
     0
 76
     0
 77
     0
 78
     0
  0
ENDTAB
  0
TABLE
  2
LTYPE
  5
5
330
0
100
AcDbSymbolTable
 70
     1
  0
LTYPE
  5
14
330
5
100
AcDbSymbolTableRecord
100
AcDbLinetypeTableRecord
  2
BYBLOCK
 70
     0
  3

 72
    65
 73
     0
 40
0.0
  0
LTYPE
  5
15
330
5
100
AcDbSymbolTableRecord
100
AcDbLinetypeTableRecord
  2
BYLAYER
 70
     0
  3

 72
    65
 73
     0
 40
0.0
  0
LTYPE
  5
16
330
5
100
AcDbSymbolTableRecord
100
AcDbLinetypeTableRecord
  2
CONTINUOUS
 70
     0
  3
Solid line
 72
    65
 73
     0
 40
0.0
  0
ENDTAB
  0
TABLE
  2
LAYER
  5
2
330
0
100
AcDbSymbolTable
 70
     2
  0
LAYER
  5
10
330
2
100
AcDbSymbolTableRecord
100
AcDbLayerTableRecord
  2
0
 70
     0
 62
     7
  6
CONTINUOUS
  0
LAYER
  5
40
330
2
100
AcDbSymbolTableRecord
100
AcDbLayerTableRecord
  2
LAYER_2
 70
     0
 62
     7
  6
CONTINUOUS
  0
ENDTAB
  0
TABLE
  2
STYLE
  5
3
330
0
100
AcDbSymbolTable
 70
     1
  0
STYLE
  5
11
330
3
100
AcDbSymbolTableRecord
100
AcDbTextStyleTableRecord
  2
STANDARD
 70
     0
 40
0.0
 41
1.0
 50
0.0
 71
     0
 42
0.2
  3
txt
  4

  0
ENDTAB
  0
TABLE
  2
VIEW
  5
6
330
0
100
AcDbSymbolTable
 70
     0
  0
ENDTAB
  0
TABLE
  2
UCS
  5
7
330
0
100
AcDbSymbolTable
 70
     0
  0
ENDTAB
  0
TABLE
  2
APPID
  5
9
330
0
100
AcDbSymbolTable
 70
     1
  0
APPID
  5
12
330
9
100
AcDbSymbolTableRecord
100
AcDbRegAppTableRecord
  2
ACAD
 70
     0
  0
ENDTAB
  0
TABLE
  2
DIMSTYLE
  5
A
330
0
100
AcDbSymbolTable
 70
     1
  0
DIMSTYLE
105
27
330
A
100
AcDbSymbolTableRecord
100
AcDbDimStyleTableRecord
  2
STANDARD
 70
     0
  3

  4

  5

  6

  7

 40
1.0
 41
0.18
 42
0.0625
 43
0.38
 44
0.18
 45
0.0
 46
0.0
 47
0.0
 48
0.0
140
0.18
141
0.09
142
0.0
143
25.4
144
1.0
145
0.0
146
1.0
147
0.09
 71
     0
 72
     0
 73
     1
 74
     1
 75
     0
 76
     0
 77
     0
 78
     0
170
     0
171
     2
172
     0
173
     0
174
     0
175
     0
176
     0
177
     0
178
     0
270
     2
271
     4
272
     4
273
     2
274
     2
340
11
275
     0
280
     0
281
     0
282
     0
283
     1
284
     0
285
     0
286
     0
287
     3
288
     0
  0
ENDTAB
  0
TABLE
  2
BLOCK_RECORD
  5
1
330
0
100
AcDbSymbolTable
 70
     2
  0
BLOCK_RECORD
  5
1F
330
1
100
AcDbSymbolTableRecord
100
AcDbBlockTableRecord
  2
*MODEL_SPACE
  0
BLOCK_RECORD
  5
1B
330
1
100
AcDbSymbolTableRecord
100
AcDbBlockTableRecord
  2
*PAPER_SPACE
  0
BLOCK_RECORD
  5
41
330
1
100
AcDbSymbolTableRecord
100
AcDbBlockTableRecord
  2
BLOCK_2
  0
ENDTAB
  0
ENDSEC
  0
SECTION
  2
BLOCKS
  0
BLOCK
  5
20
330
1F
100
AcDbEntity
  8
0
100
AcDbBlockBegin
  2
*MODEL_SPACE
 70
     0
 10
0.0
 20
0.0
 30
0.0
  3
*MODEL_SPACE
  1

  0
ENDBLK
  5
21
330
1F
100
AcDbEntity
  8
0
100
AcDbBlockEnd
  0
BLOCK
  5
1C
330
1B
100
AcDbEntity
 67
     1
  8
0
100
AcDbBlockBegin
  2
*PAPER_SPACE
 70
     0
 10
0.0
 20
0.0
 30
0.0
  3
*PAPER_SPACE
  1

  0
ENDBLK
  5
1D
330
1B
100
AcDbEntity
 67
     1
  8
0
100
AcDbBlockEnd
  0
BLOCK
  5
43
330
41
100
AcDbEntity
  8
0
100
AcDbBlockBegin
  2
BLOCK_2
 70
     0
 10
0.0
 20
0.0
 30
0.0
  3
BLOCK_2
  1

  0
SPLINE
  5
45
330
41
100
AcDbEntity
  8
LAYER_2
 62
    40
100
AcDbSpline
210
0.0
220
0.0
230
1.0
 70
    11
 71
     3
 72
    56
 73
    52
 74
     0
 42
0.0000000001
 43
0.0000000001
 12
1.0
 22
0.0
 32
0.0
 13
1.0
 23
0.0
 33
0.0
 40
0.0
 40
0.0
 40
0.0
 40
0.0
 40
1.0
 40
1.0
 40
1.0
 40
2.0
 40
2.0
 40
2.0
 40
3.0
 40
3.0
 40
3.0
 40
4.0
 40
4.0
 40
4.0
 40
5.0
 40
5.0
 40
5.0
 40
6.0
 40
6.0
 40
6.0
 40
7.0
 40
7.0
 40
7.0
 40
8.0
 40
8.0
 40
8.0
 40
9.0
 40
9.0
 40
9.0
 40
10.0
 40
10.0
 40
10.0
 40
11.0
 40
11.0
 40
11.0
 40
12.0
 40
12.0
 40
12.0
 40
13.0
 40
13.0
 40
13.0
 40
14.0
 40
14.0
 40
14.0
 40
15.0
 40
15.0
 40
15.0
 40
16.0
 40
16.0
 40
16.0
 40
17.0
 40
17.0
 40
17.0
 40
17.0
 10
134.7478043961091
 20
-101.3273206669425
 30
0.0
 10
134.7478043961091
 20
-101.3273206669425
 30
0.0
 10
145.1680555192636
 20
-101.3273206669425
 30
0.0
 10
145.1680555192636
 20
-101.3273206669425
 30
0.0
 10
145.7203043255491
 20
-101.3273206669425
 30
0.0
 10
146.1679944838573
 20
-100.8796305086343
 30
0.0
 10
146.1679944838573
 20
-100.3273817023487
 30
0.0
 10
146.1679944838573
 20
-100.3273817023487
 30
0.0
 10
146.1679944838573
 20
-89.96472826933825
 30
0.0
 10
146.1679944838573
 20
-89.96472826933825
 30
0.0
 10
147.3912186995888
 20
-89.54821622517154
 30
0.0
 10
148.2724095291754
 20
-88.39223596694275
 30
0.0
 10
148.2724095291754
 20
-87.02806428217094
 30
0.0
 10
148.2724095291754
 20
-86.86211833901581
 30
0.0
 10
148.2556577523784
 20
-86.70045723337046
 30
0.0
 10
148.2305731508764
 20
-86.54155220411332
 30
0.0
 10
147.5223907101897
 20
-86.60431753748522
 30
0.0
 10
146.8269766546453
 20
-86.71014656442273
 30
0.0
 10
146.1440080065413
 20
-86.85001744112387
 30
0.0
 10
145.4713531130462
 20
-86.98775666499351
 30
0.0
 10
144.812198687484
 20
-87.1616478596115
 30
0.0
 10
144.1681165546698
 20
-87.36981775430772
 30
0.0
 10
143.515658533457
 20
-87.58070066169859
 30
0.0
 10
142.8774761266613
 20
-87.82340763863444
 30
0.0
 10
142.2585431908894
 20
-88.10209433154436
 30
0.0
 10
142.5812409786234
 20
-88.97566288736981
 30
0.0
 10
143.2853108365745
 20
-89.66224888573332
 30
0.0
 10
144.1681165546698
 20
-89.96393159100728
 30
0.0
 10
144.1681165546698
 20
-89.96393159100728
 30
0.0
 10
144.1681165546698
 20
-99.32744273775495
 30
0.0
 10
144.1681165546698
 20
-99.32744273775495
 30
0.0
 10
144.1681165546698
 20
-99.32744273775495
 30
0.0
 10
134.7193392946622
 20
-99.32744273775495
 30
0.0
 10
134.7193392946622
 20
-99.32744273775495
 30
0.0
 10
134.4149651085404
 20
-98.47174561475924
 30
0.0
 10
133.7498678932661
 20
-97.78724820553366
 30
0.0
 10
132.9025466586689
 20
-97.4641413127108
 30
0.0
 10
132.6309439433505
 20
-98.0684110608236
 30
0.0
 10
132.3940290331992
 20
-98.69121972901644
 30
0.0
 10
132.1869787945357
 20
-99.32744273775495
 30
0.0
 10
131.9763327374595
 20
-99.97475464758661
 30
0.0
 10
131.7998361893808
 20
-100.6371388501662
 30
0.0
 10
131.6603959496153
 20
-101.3134110939208
 30
0.0
 10
131.5175536780581
 20
-102.0060906049238
 30
0.0
 10
131.4101097626119
 20
-102.7117753513837
 30
0.0
 10
131.3466123464494
 20
-103.4304438014536
 30
0.0
 10
131.4944284746134
 20
-103.4520402437768
 30
0.0
 10
131.6444193193024
 20
-103.4669402817505
 30
0.0
 10
131.7982428327188
 20
-103.4669402817505
 30
0.0
 10
133.1756566032621
 20
-103.4669402817505
 30
0.0
 10
134.3417998931724
 20
-102.569083802754
 30
0.0
 10
134.7478043961091
 20
-101.3273206669425
 30
0.0
  0
SPLINE
  5
46
330
41
100
AcDbEntity
  8
LAYER_2
 62
    40
100
AcDbSpline
210
0.0
220
0.0
230
1.0
 70
    11
 71
     3
 72
    56
 73
    52
 74
     0
 42
0.0000000001
 43
0.0000000001
 12
1.0
 22
0.0
 32
0.0
 13
1.0
 23
0.0
 33
0.0
 40
0.0
 40
0.0
 40
0.0
 40
0.0
 40
1.0
 40
1.0
 40
1.0
 40
2.0
 40
2.0
 40
2.0
 40
3.0
 40
3.0
 40
3.0
 40
4.0
 40
4.0
 40
4.0
 40
5.0
 40
5.0
 40
5.0
 40
6.0
 40
6.0
 40
6.0
 40
7.0
 40
7.0
 40
7.0
 40
8.0
 40
8.0
 40
8.0
 40
9.0
 40
9.0
 40
9.0
 40
10.0
 40
10.0
 40
10.0
 40
11.0
 40
11.0
 40
11.0
 40
12.0
 40
12.0
 40
12.0
 40
13.0
 40
13.0
 40
13.0
 40
14.0
 40
14.0
 40
14.0
 40
15.0
 40
15.0
 40
15.0
 40
16.0
 40
16.0
 40
16.0
 40
17.0
 40
17.0
 40
17.0
 40
17.0
 10
147.343116553876
 20
-90.90849064567566
 30
0.0
 10
147.343116553876
 20
-90.90849064567566
 30
0.0
 10
147.343116553876
 20
-100.3978339050221
 30
0.0
 10
147.343116553876
 20
-100.3978339050221
 30
0.0
 10
147.343116553876
 20
-100.9500827113076
 30
0.0
 10
147.7908067121843
 20
-101.3977728696158
 30
0.0
 10
148.3430555184698
 20
-101.3977728696158
 30
0.0
 10
148.8953043247554
 20
-101.3977728696158
 30
0.0
 10
149.3431667378378
 20
-100.9500827113076
 30
0.0
 10
149.3431667378378
 20
-100.3978339050221
 30
0.0
 10
149.3431667378378
 20
-100.3978339050221
 30
0.0
 10
149.3431667378378
 20
-91.90842961026942
 30
0.0
 10
149.3431667378378
 20
-91.90842961026942
 30
0.0
 10
149.3431667378378
 20
-91.90842961026942
 30
0.0
 10
154.6220865498861
 20
-91.90842961026942
 30
0.0
 10
154.6220865498861
 20
-91.90842961026942
 30
0.0
 10
154.6220865498861
 20
-91.90842961026942
 30
0.0
 10
158.1850043007315
 20
-91.90842961026942
 30
0.0
 10
158.1850043007315
 20
-91.90842961026942
 30
0.0
 10
158.7372531070171
 20
-91.90842961026942
 30
0.0
 10
159.1851155200996
 20
-91.4607394519612
 30
0.0
 10
159.1851155200996
 20
-90.90849064567566
 30
0.0
 10
159.1851155200996
 20
-90.35624183939011
 30
0.0
 10
158.7372531070171
 20
-89.90855168108189
 30
0.0
 10
158.1850043007315
 20
-89.90855168108189
 30
0.0
 10
158.1850043007315
 20
-89.90855168108189
 30
0.0
 10
155.7566426205661
 20
-89.90855168108189
 30
0.0
 10
155.7566426205661
 20
-89.90855168108189
 30
0.0
 10
156.5748743301597
 20
-89.58473423731519
 30
0.0
 10
157.2259327813316
 20
-88.92997230849667
 30
0.0
 10
157.5317496011878
 20
-88.10209433154436
 30
0.0
 10
156.9128166654159
 20
-87.82340763863444
 30
0.0
 10
156.2746342586202
 20
-87.58072219354536
 30
0.0
 10
155.6221977692542
 20
-87.3698392861545
 30
0.0
 10
154.978007977206
 20
-87.16162632776472
 30
0.0
 10
154.3187674242567
 20
-86.98773513314673
 30
0.0
 10
153.6460048715277
 20
-86.8499743774303
 30
0.0
 10
152.9631223508109
 20
-86.71014656442273
 30
0.0
 10
152.2677944226535
 20
-86.60431753748522
 30
0.0
 10
151.559698109354
 20
-86.54155220411332
 30
0.0
 10
151.534613507852
 20
-86.70045723337046
 30
0.0
 10
151.517861731055
 20
-86.86211833901581
 30
0.0
 10
151.517861731055
 20
-87.02806428217094
 30
0.0
 10
151.517861731055
 20
-88.33457368125838
 30
0.0
 10
152.3259950045075
 20
-89.45046164077758
 30
0.0
 10
153.4687977725052
 20
-89.90855168108189
 30
0.0
 10
153.4687977725052
 20
-89.90855168108189
 30
0.0
 10
148.3430555184698
 20
-89.90855168108189
 30
0.0
 10
148.3430555184698
 20
-89.90855168108189
 30
0.0
 10
147.7908067121843
 20
-89.90855168108189
 30
0.0
 10
147.343116553876
 20
-90.35624183939011
 30
0.0
 10
147.343116553876
 20
-90.90849064567566
 30
0.0
  0
SPLINE
  5
47
330
41
100
AcDbEntity
  8
LAYER_2
 62
    40
100
AcDbSpline
210
0.0
220
0.0
230
1.0
 70
    11
 71
     3
 72
    23
 73
    19
 74
     0
 42
0.0000000001
 43
0.0000000001
 12
1.0
 22
0.0
 32
0.0
 13
1.0
 23
0.0
 33
0.0
 40
0.0
 40
0.0
 40
0.0
 40
0.0
 40
1.0
 40
1.0
 40
1.0
 40
2.0
 40
2.0
 40
2.0
 40
3.0
 40
3.0
 40
3.0
 40
4.0
 40
4.0
 40
4.0
 40
5.0
 40
5.0
 40
5.0
 40
6.0
 40
6.0
 40
6.0
 40
6.0
 10
150.4824598148099
 20
-109.8168972164694
 30
0.0
 10
150.4824598148099
 20
-109.8168972164694
 30
0.0
 10
150.4824598148099
 20
-115.4961371239038
 30
0.0
 10
150.4824598148099
 20
-115.4961371239038
 30
0.0
 10
150.4824598148099
 20
-116.0483859301893
 30
0.0
 10
150.9303222278924
 20
-116.4962483432718
 30
0.0
 10
151.482571034178
 20
-116.4962483432718
 30
0.0
 10
152.0348198404635
 20
-116.4962483432718
 30
0.0
 10
152.482682253546
 20
-116.0483859301893
 30
0.0
 10
152.482682253546
 20
-115.4961371239038
 30
0.0
 10
152.482682253546
 20
-115.4961371239038
 30
0.0
 10
152.482682253546
 20
-109.8168972164694
 30
0.0
 10
152.482682253546
 20
-109.8168972164694
 30
0.0
 10
152.482682253546
 20
-109.2646484101838
 30
0.0
 10
152.0348198404635
 20
-108.8167859971014
 30
0.0
 10
151.482571034178
 20
-108.8167859971014
 30
0.0
 10
150.9303222278924
 20
-108.8167859971014
 30
0.0
 10
150.4824598148099
 20
-109.2646484101838
 30
0.0
 10
150.4824598148099
 20
-109.8168972164694
 30
0.0
  0
SPLINE
  5
48
330
41
100
AcDbEntity
  8
LAYER_2
 62
    40
100
AcDbSpline
210
0.0
220
0.0
230
1.0
 70
    11
 71
     3
 72
    47
 73
    43
 74
     0
 42
0.0000000001
 43
0.0000000001
 12
1.0
 22
0.0
 32
0.0
 13
1.0
 23
0.0
 33
0.0
 40
0.0
 40
0.0
 40
0.0
 40
0.0
 40
1.0
 40
1.0
 40
1.0
 40
2.0
 40
2.0
 40
2.0
 40
3.0
 40
3.0
 40
3.0
 40
4.0
 40
4.0
 40
4.0
 40
5.0
 40
5.0
 40
5.0
 40
6.0
 40
6.0
 40
6.0
 40
7.0
 40
7.0
 40
7.0
 40
8.0
 40
8.0
 40
8.0
 40
9.0
 40
9.0
 40
9.0
 40
10.0
 40
10.0
 40
10.0
 40
11.0
 40
11.0
 40
11.0
 40
12.0
 40
12.0
 40
12.0
 40
13.0
 40
13.0
 40
13.0
 40
14.0
 40
14.0
 40
14.0
 40
14.0
 10
157.7264620916448
 20
-114.4960259045357
 30
0.0
 10
157.1742132853592
 20
-114.4960259045357
 30
0.0
 10
156.7263508722768
 20
-114.9438883176182
 30
0.0
 10
156.7263508722768
 20
-115.4961371239038
 30
0.0
 10
156.7263508722768
 20
-115.4961371239038
 30
0.0
 10
156.7263508722768
 20
-118.4606417889612
 30
0.0
 10
156.7263508722768
 20
-118.4606417889612
 30
0.0
 10
156.7263508722768
 20
-118.4606417889612
 30
0.0
 10
155.5528006270732
 20
-120.0849827784098
 30
0.0
 10
155.5528006270732
 20
-120.0849827784098
 30
0.0
 10
155.2589339821814
 20
-119.9925034964776
 30
0.0
 10
154.9467652675242
 20
-119.9411285100538
 30
0.0
 10
154.6221942091201
 20
-119.9411285100538
 30
0.0
 10
152.9077209090387
 20
-119.9411285100538
 30
0.0
 10
151.517861731055
 20
-121.3309661561907
 30
0.0
 10
151.517861731055
 20
-123.0454609881188
 30
0.0
 10
151.517861731055
 20
-123.2477742204901
 30
0.0
 10
151.5387045587408
 20
-123.4450490007143
 30
0.0
 10
151.5756532078201
 20
-123.6365747778474
 30
0.0
 10
152.2822638236916
 20
-123.5733357438463
 30
0.0
 10
152.9760845225741
 20
-123.4670760799731
 30
0.0
 10
153.6575459414033
 20
-123.3270544803445
 30
0.0
 10
154.5249133253553
 20
-123.1488138526763
 30
0.0
 10
155.3710503083795
 20
-122.9128463437835
 30
0.0
 10
156.189884909683
 20
-122.618549061956
 30
0.0
 10
156.6569967937893
 20
-122.4506652525905
 30
0.0
 10
157.1158835124246
 20
-122.2654913702583
 30
0.0
 10
157.5649732407737
 20
-122.0622092047818
 30
0.0
 10
157.4697378824533
 20
-121.7771706170709
 30
0.0
 10
157.3328814643018
 20
-121.5116398825453
 30
0.0
 10
157.1641363810649
 20
-121.2700956253357
 30
0.0
 10
157.1641363810649
 20
-121.2700956253357
 30
0.0
 10
158.5370930593241
 20
-119.3698024875187
 30
0.0
 10
158.5370930593241
 20
-119.3698024875187
 30
0.0
 10
158.6600829681475
 20
-119.1992702609988
 30
0.0
 10
158.7265733110128
 20
-118.9942870796264
 30
0.0
 10
158.7265733110128
 20
-118.7841362550262
 30
0.0
 10
158.7265733110128
 20
-118.7841362550262
 30
0.0
 10
158.7265733110128
 20
-115.4961371239038
 30
0.0
 10
158.7265733110128
 20
-115.4961371239038
 30
0.0
 10
158.7265733110128
 20
-114.9438883176182
 30
0.0
 10
158.2787108979303
 20
-114.4960259045357
 30
0.0
 10
157.7264620916448
 20
-114.4960259045357
 30
0.0
  0
SPLINE
  5
49
330
41
100
AcDbEntity
  8
LAYER_2
 62
    40
100
AcDbSpline
210
0.0
220
0.0
230
1.0
 70
    11
 71
     3
 72
    98
 73
    94
 74
     0
 42
0.0000000001
 43
0.0000000001
 12
1.0
 22
0.0
 32
0.0
 13
1.0
 23
0.0
 33
0.0
 40
0.0
 40
0.0
 40
0.0
 40
0.0
 40
1.0
 40
1.0
 40
1.0
 40
2.0
 40
2.0
 40
2.0
 40
3.0
 40
3.0
 40
3.0
 40
4.0
 40
4.0
 40
4.0
 40
5.0
 40
5.0
 40
5.0
 40
6.0
 40
6.0
 40
6.0
 40
7.0
 40
7.0
 40
7.0
 40
8.0
 40
8.0
 40
8.0
 40
9.0
 40
9.0
 40
9.0
 40
10.0
 40
10.0
 40
10.0
 40
11.0
 40
11.0
 40
11.0
 40
12.0
 40
12.0
 40
12.0
 40
13.0
 40
13.0
 40
13.0
 40
14.0
 40
14.0
 40
14.0
 40
15.0
 40
15.0
 40
15.0
 40
16.0
 40
16.0
 40
16.0
 40
17.0
 40
17.0
 40
17.0
 40
18.0
 40
18.0
 40
18.0
 40
19.0
 40
19.0
 40
19.0
 40
20.0
 40
20.0
 40
20.0
 40
21.0
 40
21.0
 40
21.0
 40
22.0
 40
22.0
 40
22.0
 40
23.0
 40
23.0
 40
23.0
 40
24.0
 40
24.0
 40
24.0
 40
25.0
 40
25.0
 40
25.0
 40
26.0
 40
26.0
 40
26.0
 40
27.0
 40
27.0
 40
27.0
 40
28.0
 40
28.0
 40
28.0
 40
29.0
 40
29.0
 40
29.0
 40
30.0
 40
30.0
 40
30.0
 40
31.0
 40
31.0
 40
31.0
 40
31.0
 10
161.783406535075
 20
-105.7124104553427
 30
0.0
 10
161.2311577287894
 20
-105.7124104553427
 30
0.0
 10
160.783295315707
 20
-106.1602728684252
 30
0.0
 10
160.783295315707
 20
-106.7125216747108
 30
0.0
 10
160.783295315707
 20
-106.7125216747108
 30
0.0
 10
160.783295315707
 20
-111.9208170293115
 30
0.0
 10
160.783295315707
 20
-111.9208170293115
 30
0.0
 10
160.783295315707
 20
-111.9208170293115
 30
0.0
 10
154.6220865498861
 20
-111.9208170293115
 30
0.0
 10
154.6220865498861
 20
-111.9208170293115
 30
0.0
 10
154.0698377436006
 20
-111.9208170293115
 30
0.0
 10
153.6219753305181
 20
-112.3686794423939
 30
0.0
 10
153.6219753305181
 20
-112.9209282486795
 30
0.0
 10
153.6219753305181
 20
-112.9209282486795
 30
0.0
 10
153.6219753305181
 20
-117.7061658776915
 30
0.0
 10
153.6219753305181
 20
-117.7061658776915
 30
0.0
 10
153.6219753305181
 20
-117.7061658776915
 30
0.0
 10
146.1679944838573
 20
-117.7061658776915
 30
0.0
 10
146.1679944838573
 20
-117.7061658776915
 30
0.0
 10
146.1679944838573
 20
-117.7061658776915
 30
0.0
 10
146.1679944838573
 20
-109.8168972164694
 30
0.0
 10
146.1679944838573
 20
-109.8168972164694
 30
0.0
 10
146.1679944838573
 20
-109.2646484101838
 30
0.0
 10
145.7203043255491
 20
-108.8167859971014
 30
0.0
 10
145.1680555192636
 20
-108.8167859971014
 30
0.0
 10
145.1680555192636
 20
-108.8167859971014
 30
0.0
 10
134.7349068198862
 20
-108.8167859971014
 30
0.0
 10
134.7349068198862
 20
-108.8167859971014
 30
0.0
 10
134.3183517120259
 20
-107.5935617813698
 30
0.0
 10
133.1624145174906
 20
-106.7123924836301
 30
0.0
 10
131.7982428327188
 20
-106.7123924836301
 30
0.0
 10
131.6444193193024
 20
-106.7123924836301
 30
0.0
 10
131.4944284746134
 20
-106.7272925216038
 30
0.0
 10
131.3466123464494
 20
-106.7488889639269
 30
0.0
 10
131.4090547021195
 20
-107.4556503027259
 30
0.0
 10
131.5144100284278
 20
-108.1497078519231
 30
0.0
 10
131.6536349497255
 20
-108.8313845892201
 30
0.0
 10
131.7916971512969
 20
-109.5073984508133
 30
0.0
 10
131.9662773650119
 20
-110.1698041852397
 30
0.0
 10
132.1754592565069
 20
-110.8170084358374
 30
0.0
 10
132.3850502530908
 20
-111.4654400017018
 30
0.0
 10
132.6259916185905
 20
-112.0998543353105
 30
0.0
 10
132.9025681905157
 20
-112.7151914526697
 30
0.0
 10
133.7616888771499
 20
-112.3875844038693
 30
0.0
 10
134.4353342355969
 20
-111.6894573356302
 30
0.0
 10
134.7335718453856
 20
-110.8170084358374
 30
0.0
 10
134.7335718453856
 20
-110.8170084358374
 30
0.0
 10
144.1681165546698
 20
-110.8170084358374
 30
0.0
 10
144.1681165546698
 20
-110.8170084358374
 30
0.0
 10
144.1681165546698
 20
-110.8170084358374
 30
0.0
 10
144.1681165546698
 20
-120.1068160710475
 30
0.0
 10
144.1681165546698
 20
-120.1068160710475
 30
0.0
 10
143.2537882128845
 20
-120.4185110850755
 30
0.0
 10
142.5317392628697
 20
-121.144952531834
 30
0.0
 10
142.2253195513035
 20
-122.0622092047818
 30
0.0
 10
142.8547169646118
 20
-122.3470970695651
 30
0.0
 10
143.503966740654
 20
-122.5951008808096
 30
0.0
 10
144.1681165546698
 20
-122.809794925081
 30
0.0
 10
144.8055884105217
 20
-123.0158762306393
 30
0.0
 10
145.4579172406538
 20
-123.1880879412082
 30
0.0
 10
146.1233804973233
 20
-123.3252027415211
 30
0.0
 10
146.8078133110085
 20
-123.4662148061018
 30
0.0
 10
147.5047776595214
 20
-123.5730558298381
 30
0.0
 10
148.2146180524103
 20
-123.6365747778474
 30
0.0
 10
148.2515667014896
 20
-123.4450490007143
 30
0.0
 10
148.2724095291754
 20
-123.2477742204901
 30
0.0
 10
148.2724095291754
 20
-123.0454609881188
 30
0.0
 10
148.2724095291754
 20
-121.681289303347
 30
0.0
 10
147.3912186995888
 20
-120.5253090451182
 30
0.0
 10
146.1679944838573
 20
-120.1087970009515
 30
0.0
 10
146.1679944838573
 20
-120.1087970009515
 30
0.0
 10
146.1679944838573
 20
-119.7063883164276
 30
0.0
 10
146.1679944838573
 20
-119.7063883164276
 30
0.0
 10
146.1679944838573
 20
-119.7063883164276
 30
0.0
 10
154.6220865498861
 20
-119.7063883164276
 30
0.0
 10
154.6220865498861
 20
-119.7063883164276
 30
0.0
 10
155.1743353561717
 20
-119.7063883164276
 30
0.0
 10
155.6221977692542
 20
-119.2585259033451
 30
0.0
 10
155.6221977692542
 20
-118.7062770970595
 30
0.0
 10
155.6221977692542
 20
-118.7062770970595
 30
0.0
 10
155.6221977692542
 20
-113.9210394680475
 30
0.0
 10
155.6221977692542
 20
-113.9210394680475
 30
0.0
 10
155.6221977692542
 20
-113.9210394680475
 30
0.0
 10
161.783406535075
 20
-113.9210394680475
 30
0.0
 10
161.783406535075
 20
-113.9210394680475
 30
0.0
 10
162.3356553413605
 20
-113.9210394680475
 30
0.0
 10
162.783517754443
 20
-113.473177054965
 30
0.0
 10
162.783517754443
 20
-112.9209282486795
 30
0.0
 10
162.783517754443
 20
-112.9209282486795
 30
0.0
 10
162.783517754443
 20
-106.7125216747108
 30
0.0
 10
162.783517754443
 20
-106.7125216747108
 30
0.0
 10
162.783517754443
 20
-106.1602728684252
 30
0.0
 10
162.3356553413605
 20
-105.7124104553427
 30
0.0
 10
161.783406535075
 20
-105.7124104553427
 30
0.0
  0
SPLINE
  5
4A
330
41
100
AcDbEntity
  8
LAYER_2
 62
    40
100
AcDbSpline
210
0.0
220
0.0
230
1.0
 70
    11
 71
     3
 72
    83
 73
    79
 74
     0
 42
0.0000000001
 43
0.0000000001
 12
1.0
 22
0.0
 32
0.0
 13
1.0
 23
0.0
 33
0.0
 40
0.0
 40
0.0
 40
0.0
 40
0.0
 40
1.0
 40
1.0
 40
1.0
 40
2.0
 40
2.0
 40
2.0
 40
3.0
 40
3.0
 40
3.0
 40
4.0
 40
4.0
 40
4.0
 40
5.0
 40
5.0
 40
5.0
 40
6.0
 40
6.0
 40
6.0
 40
7.0
 40
7.0
 40
7.0
 40
8.0
 40
8.0
 40
8.0
 40
9.0
 40
9.0
 40
9.0
 40
10.0
 40
10.0
 40
10.0
 40
11.0
 40
11.0
 40
11.0
 40
12.0
 40
12.0
 40
12.0
 40
13.0
 40
13.0
 40
13.0
 40
14.0
 40
14.0
 40
14.0
 40
15.0
 40
15.0
 40
15.0
 40
16.0
 40
16.0
 40
16.0
 40
17.0
 40
17.0
 40
17.0
 40
18.0
 40
18.0
 40
18.0
 40
19.0
 40
19.0
 40
19.0
 40
20.0
 40
20.0
 40
20.0
 40
21.0
 40
21.0
 40
21.0
 40
22.0
 40
22.0
 40
22.0
 40
23.0
 40
23.0
 40
23.0
 40
24.0
 40
24.0
 40
24.0
 40
25.0
 40
25.0
 40
25.0
 40
26.0
 40
26.0
 40
26.0
 40
26.0
 10
157.1848930813635
 20
-100.3978339050221
 30
0.0
 10
157.1848930813635
 20
-100.3978339050221
 30
0.0
 10
157.1848930813635
 20
-102.7167276761437
 30
0.0
 10
157.1848930813635
 20
-102.7167276761437
 30
0.0
 10
157.1848930813635
 20
-102.7167276761437
 30
0.0
 10
151.7211654283783
 20
-102.7167276761437
 30
0.0
 10
151.7211654283783
 20
-102.7167276761437
 30
0.0
 10
151.7211654283783
 20
-102.7167276761437
 30
0.0
 10
152.3951768282207
 20
-100.7171942565047
 30
0.0
 10
152.3951768282207
 20
-100.7171942565047
 30
0.0
 10
152.4296277830732
 20
-100.61435815627
 30
0.0
 10
152.4475422795965
 20
-100.5065266675817
 30
0.0
 10
152.4475422795965
 20
-100.3978339050221
 30
0.0
 10
152.4475422795965
 20
-100.3978339050221
 30
0.0
 10
152.4475422795965
 20
-98.0202012558769
 30
0.0
 10
152.4475422795965
 20
-98.0202012558769
 30
0.0
 10
152.4475422795965
 20
-97.46795244959135
 30
0.0
 10
151.999679866514
 20
-97.02026229128313
 30
0.0
 10
151.4474310602284
 20
-97.02026229128313
 30
0.0
 10
150.8951822539429
 20
-97.02026229128313
 30
0.0
 10
150.4473198408604
 20
-97.46795244959135
 30
0.0
 10
150.4473198408604
 20
-98.0202012558769
 30
0.0
 10
150.4473198408604
 20
-98.0202012558769
 30
0.0
 10
150.4473198408604
 20
-100.2338473599242
 30
0.0
 10
150.4473198408604
 20
-100.2338473599242
 30
0.0
 10
150.4473198408604
 20
-100.2338473599242
 30
0.0
 10
147.3248575478042
 20
-109.4975368649867
 30
0.0
 10
147.3248575478042
 20
-109.4975368649867
 30
0.0
 10
147.3186779077776
 20
-109.5158819984457
 30
0.0
 10
147.3172568058899
 20
-109.534485514066
 30
0.0
 10
147.3121968218959
 20
-109.5529167749121
 30
0.0
 10
147.3029381277793
 20
-109.5866571788208
 30
0.0
 10
147.2944976438405
 20
-109.6203329871891
 30
0.0
 10
147.2887701725962
 20
-109.6553868337515
 30
0.0
 10
147.2829350421181
 20
-109.6907636580157
 30
0.0
 10
147.2801359020363
 20
-109.7256883134974
 30
0.0
 10
147.2781334402855
 20
-109.7609144148341
 30
0.0
 10
147.2770783797932
 20
-109.7798193763094
 30
0.0
 10
147.2724920964284
 20
-109.7977338728327
 30
0.0
 10
147.2724920964284
 20
-109.8168972164694
 30
0.0
 10
147.2724920964284
 20
-109.8168972164694
 30
0.0
 10
147.2724920964284
 20
-112.1943576108403
 30
0.0
 10
147.2724920964284
 20
-112.1943576108403
 30
0.0
 10
147.2724920964284
 20
-112.7466064171258
 30
0.0
 10
147.7201822547366
 20
-113.1944688302083
 30
0.0
 10
148.2724310610222
 20
-113.1944688302083
 30
0.0
 10
148.8246798673077
 20
-113.1944688302083
 30
0.0
 10
149.2725422803902
 20
-112.7466064171258
 30
0.0
 10
149.2725422803902
 20
-112.1943576108403
 30
0.0
 10
149.2725422803902
 20
-112.1943576108403
 30
0.0
 10
149.2725422803902
 20
-109.9809052934141
 30
0.0
 10
149.2725422803902
 20
-109.9809052934141
 30
0.0
 10
149.2725422803902
 20
-109.9809052934141
 30
0.0
 10
151.0470463693021
 20
-104.7166056053313
 30
0.0
 10
151.0470463693021
 20
-104.7166056053313
 30
0.0
 10
151.0470463693021
 20
-104.7166056053313
 30
0.0
 10
158.1850043007315
 20
-104.7166056053313
 30
0.0
 10
158.1850043007315
 20
-104.7166056053313
 30
0.0
 10
158.7372531070171
 20
-104.7166056053313
 30
0.0
 10
159.1851155200996
 20
-104.268915447023
 30
0.0
 10
159.1851155200996
 20
-103.7166666407375
 30
0.0
 10
159.1851155200996
 20
-103.7166666407375
 30
0.0
 10
159.1851155200996
 20
-101.3977728696158
 30
0.0
 10
159.1851155200996
 20
-101.3977728696158
 30
0.0
 10
159.1851155200996
 20
-101.3977728696158
 30
0.0
 10
161.8185465090245
 20
-101.3977728696158
 30
0.0
 10
161.8185465090245
 20
-101.3977728696158
 30
0.0
 10
162.3707953153101
 20
-101.3977728696158
 30
0.0
 10
162.8186577283926
 20
-100.9500827113076
 30
0.0
 10
162.8186577283926
 20
-100.3978339050221
 30
0.0
 10
162.8186577283926
 20
-99.84558509873652
 30
0.0
 10
162.3707953153101
 20
-99.39789494042832
 30
0.0
 10
161.8185465090245
 20
-99.39789494042832
 30
0.0
 10
161.8185465090245
 20
-99.39789494042832
 30
0.0
 10
158.1850043007315
 20
-99.39789494042832
 30
0.0
 10
158.1850043007315
 20
-99.39789494042832
 30
0.0
 10
157.632755494446
 20
-99.39789494042832
 30
0.0
 10
157.1848930813635
 20
-99.84558509873652
 30
0.0
 10
157.1848930813635
 20
-100.3978339050221
 30
0.0
  0
ENDBLK
  5
44
330
41
100
AcDbEntity
  8
0
100
AcDbBlockEnd
  0
ENDSEC
  0
SECTION
  2
ENTITIES
  0
INSERT
  5
42
330
1F
100
AcDbEntity
  8
LAYER_2
100
AcDbBlockReference
  2
BLOCK_2
 10
0.0
 20
0.0
 30
0.0
  0
ENDSEC
  0
SECTION
  2
OBJECTS
  0
DICTIONARY
  5
C
330
0
100
AcDbDictionary
  3
ACAD_GROUP
350
D
  3
ACAD_LAYOUT
350
1A
  3
ACAD_MATERIAL
350
3B
  3
ACAD_MLEADERSTYLE
350
4D
  3
ACAD_MLINESTYLE
350
17
  3
ACAD_PLOTSETTINGS
350
19
  3
ACAD_VISUALSTYLE
350
2A
  3
ACDBVARIABLEDICTIONARY
350
4B
1001
ACAD
1000
TREAT_AS_HARD
1070
     0
  0
DICTIONARY
  5
D
102
{ACAD_REACTORS
330
C
102
}
330
C
100
AcDbDictionary
1001
ACAD
1000
TREAT_AS_HARD
1070
     0
  0
DICTIONARY
  5
1A
102
{ACAD_REACTORS
330
C
102
}
330
C
100
AcDbDictionary
1001
ACAD
1000
TREAT_AS_HARD
1070
     0
  0
DICTIONARY
  5
3B
102
{ACAD_REACTORS
330
C
102
}
330
C
100
AcDbDictionary
  3
BYBLOCK
350
3D
  3
BYLAYER
350
3C
  3
GLOBAL
350
3E
1001
ACAD
1000
TREAT_AS_HARD
1070
     0
  0
DICTIONARY
  5
4D
102
{ACAD_REACTORS
330
C
102
}
330
C
100
AcDbDictionary
1001
ACAD
1000
TREAT_AS_HARD
1070
     0
  0
DICTIONARY
  5
17
102
{ACAD_REACTORS
330
C
102
}
330
C
100
AcDbDictionary
  3
STANDARD
350
18
1001
ACAD
1000
TREAT_AS_HARD
1070
     0
  0
DICTIONARY
  5
19
102
{ACAD_REACTORS
330
C
102
}
330
C
100
AcDbDictionary
1001
ACAD
1000
TREAT_AS_HARD
1070
     0
  0
DICTIONARY
  5
2A
102
{ACAD_REACTORS
330
C
102
}
330
C
100
AcDbDictionary
  3
2DWIREFRAME
350
2F
  3
3DWIREFRAME
350
30
  3
3D_HIDDEN
350
31
  3
BASIC
350
32
  3
BRIGHTEN
350
36
  3
COLORCHANGE
350
3A
  3
CONCEPTUAL
350
34
  3
DIM
350
35
  3
FACEPATTERN
350
39
  3
FLAT
350
2B
  3
FLATWITHEDGES
350
2C
  3
GOURAUD
350
2D
  3
GOURAUDWITHEDGES
350
2E
  3
LINEPATTERN
350
38
  3
REALISTIC
350
33
  3
THICKEN
350
37
1001
ACAD
1000
TREAT_AS_HARD
1070
     0
  0
DICTIONARY
  5
4B
102
{ACAD_REACTORS
330
C
102
}
330
C
100
AcDbDictionary
  3
DIMASSOC
350
4E
  3
HIDETEXT
350
4F
1001
ACAD
1000
TREAT_AS_HARD
1070
     0
  0
MATERIAL
  5
3D
102
{ACAD_REACTORS
330
3B
102
}
102
{ACAD_XDICTIONARY
360
52
102
}
330
3B
100
AcDbMaterial
  1
ByBlock
  0
MATERIAL
  5
3C
102
{ACAD_REACTORS
330
3B
102
}
102
{ACAD_XDICTIONARY
360
50
102
}
330
3B
100
AcDbMaterial
  1
ByLayer
  0
MATERIAL
  5
3E
102
{ACAD_REACTORS
330
3B
102
}
102
{ACAD_XDICTIONARY
360
54
102
}
330
3B
100
AcDbMaterial
  1
Global
  0
MLINESTYLE
  5
18
102
{ACAD_REACTORS
330
17
102
}
330
17
100
AcDbMlineStyle
  2
Standard
 70
     0
  3

 62
   256
 51
90.0
 52
90.0
 71
     2
 49
0.5
 62
   256
  6
BYLAYER
 49
-0.5
 62
   256
  6
BYLAYER
  0
ACAD_PROXY_OBJECT
  5
2F
102
{ACAD_REACTORS
330
2A
102
}
330
2A
100
AcDbZombieObject
 90
      499
 91
      501
 93
      436
310
42CC9915DA5C99599C985B595049028333333333333E3BF0000000000000FB0107901411070040501600405405064090741402480A0340
1001
ACAD
1000
AcDbSavedByObjectVersion
1070
     0
  0
ACAD_PROXY_OBJECT
  5
30
102
{ACAD_REACTORS
330
2A
102
}
330
2A
100
AcDbZombieObject
 90
      499
 91
      501
 93
      436
310
42CCD915DA5C99599C985B595059028333333333333E3BF0000000000000FB0107901411070040501600405405064090741402480A0340
1001
ACAD
1000
AcDbSavedByObjectVersion
1070
     0
  0
ACAD_PROXY_OBJECT
  5
31
102
{ACAD_REACTORS
330
2A
102
}
330
2A
100
AcDbZombieObject
 90
      499
 91
      501
 93
      500
310
424CD108121A5919195B90640502408333333333333E3BF0000000000000FB01079024090700405020000000000001110200405405064090740C02480A0340
1001
ACAD
1000
AcDbSavedByObjectVersion
1070
     0
  0
ACAD_PROXY_OBJECT
  5
32
102
{ACAD_REACTORS
330
2A
102
}
330
2A
100
AcDbZombieObject
 90
      499
 91
      501
 93
      388
310
4150985CDA58D07406404333333333333E3BF0000000000000FB0107A41107004050150841D405064090741402480A0350
1001
ACAD
1000
AcDbSavedByObjectVersion
1070
     0
  0
ACAD_PROXY_OBJECT
  5
36
102
{ACAD_REACTORS
330
2A
102
}
330
2A
100
AcDbZombieObject
 90
      499
 91
      501
 93
      428
310
42109C9A59DA1D195B90C409028333333333333E3BF0000000000000FB010790141107004050150841D405064090741402480A029950
1001
ACAD
1000
AcDbSavedByObjectVersion
1070
     0
  0
ACAD_PROXY_OBJECT
  5
3A
102
{ACAD_REACTORS
330
2A
102
}
330
2A
100
AcDbZombieObject
 90
      499
 91
      501
 93
      452
310
42D0DBDB1BDC90DA185B99D95104090240C333333333333E3BF0000000000000FB0108901411070040501508421405064090741402480A0350
1001
ACAD
1000
AcDbSavedByObjectVersion
1070
     0
  0
ACAD_PROXY_OBJECT
  5
34
102
{ACAD_REACTORS
330
2A
102
}
330
2A
100
AcDbZombieObject
 90
      499
 91
      501
 93
      500
310
4290DBDB98D95C1D1D585B10940D028333333333333E3BF0000000000000FB0107902409070040501000000000000111010841D405064090740C02480A0340
1001
ACAD
1000
AcDbSavedByObjectVersion
1070
     0
  0
ACAD_PROXY_OBJECT
  5
35
102
{ACAD_REACTORS
330
2A
102
}
330
2A
100
AcDbZombieObject
 90
      499
 91
      501
 93
      412
310
40D11A5B50B409028333333333333E3BF0000000000000FB010790141107004050150841D405064090741402480A02677FFFFFD0
1001
ACAD
1000
AcDbSavedByObjectVersion
1070
     0
  0
ACAD_PROXY_OBJECT
  5
39
102
{ACAD_REACTORS
330
2A
102
}
330
2A
100
AcDbZombieObject
 90
      499
 91
      501
 93
      444
310
42D19858D95C185D1D195C9B90F409028333333333333E3BF0000000000000FB010790141107004050150841D405064090741402480A0350
1001
ACAD
1000
AcDbSavedByObjectVersion
1070
     0
  0
ACAD_PROXY_OBJECT
  5
2B
102
{ACAD_REACTORS
330
2A
102
}
330
2A
100
AcDbZombieObject
 90
      499
 91
      501
 93
      388
310
41119B185D240901404333333333333E3BF0000000000000F9010740A41107004050150841D405064090741402480A1B50
1001
ACAD
1000
AcDbSavedByObjectVersion
1070
     0
  0
ACAD_PROXY_OBJECT
  5
2C
102
{ACAD_REACTORS
330
2A
102
}
330
2A
100
AcDbZombieObject
 90
      499
 91
      501
 93
      476
310
43519B185D15DA5D1A115919D95CD0140901404333333333333E3BF0000000000000F9010740901411070040501600405405064090741402480A1B50
1001
ACAD
1000
AcDbSavedByObjectVersion
1070
     0
  0
ACAD_PROXY_OBJECT
  5
2D
102
{ACAD_REACTORS
330
2A
102
}
330
2A
100
AcDbZombieObject
 90
      499
 91
      501
 93
      412
310
41D1DBDD5C985D5910240902404333333333333E3BF0000000000000F9010740A411070040501641D405064090741402480A1B50
1001
ACAD
1000
AcDbSavedByObjectVersion
1070
     0
  0
ACAD_PROXY_OBJECT
  5
2E
102
{ACAD_REACTORS
330
2A
102
}
330
2A
100
AcDbZombieObject
 90
      499
 91
      501
 93
      500
310
4411DBDD5C985D5915DA5D1A115919D95CD0340902404333333333333E3BF0000000000000F9010740901411070040501600405405064090741402480A1B50
1001
ACAD
1000
AcDbSavedByObjectVersion
1070
     0
  0
ACAD_PROXY_OBJECT
  5
38
102
{ACAD_REACTORS
330
2A
102
}
330
2A
100
AcDbZombieObject
 90
      499
 91
      501
 93
      444
310
42D31A5B995C185D1D195C9B90E409028333333333333E3BF0000000000000FB010790141107004050750841D405064090741402483A0350
1001
ACAD
1000
AcDbSavedByObjectVersion
1070
     0
  0
ACAD_PROXY_OBJECT
  5
33
102
{ACAD_REACTORS
330
2A
102
}
330
2A
100
AcDbZombieObject
 90
      499
 91
      501
 93
      420
310
425499585B1A5CDD1A58D08409028333333333333E3BF0000000000000FB01079019070040501508421405064090741402480A1B40
1001
ACAD
1000
AcDbSavedByObjectVersion
1070
     0
  0
ACAD_PROXY_OBJECT
  5
37
102
{ACAD_REACTORS
330
2A
102
}
330
2A
100
AcDbZombieObject
 90
      499
 91
      501
 93
      412
310
41D51A1A58DAD95B90D409028333333333333E3BF0000000000000FB010790141107004050150C41D405064090741402480A0350
1001
ACAD
1000
AcDbSavedByObjectVersion
1070
     0
  0
DICTIONARYVAR
  5
4E
102
{ACAD_REACTORS
330
4B
102
}
330
4B
100
DictionaryVariables
280
     0
  1
2
  0
DICTIONARYVAR
  5
4F
102
{ACAD_REACTORS
330
4B
102
}
330
4B
100
DictionaryVariables
280
     0
  1
1
  0
DICTIONARY
  5
52
330
3D
100
AcDbDictionary
  3
ACAD_XREC_ROUNDTRIP
360
53
1001
ACAD
1000
TREAT_AS_HARD
1070
     1
  0
DICTIONARY
  5
50
330
3C
100
AcDbDictionary
  3
ACAD_XREC_ROUNDTRIP
360
51
1001
ACAD
1000
TREAT_AS_HARD
1070
     1
  0
DICTIONARY
  5
54
330
3E
100
AcDbDictionary
  3
ACAD_XREC_ROUNDTRIP
360
55
1001
ACAD
1000
TREAT_AS_HARD
1070
     1
  0
XRECORD
  5
53
102
{ACAD_REACTORS
330
52
102
}
330
52
100
AcDbXrecord
102
MATERIAL
148
0.0
149
0.0
149
0.0
 93
        0
 94
      127
282
     0
 72
     1
 77
     1
171
     1
175
     1
179
     1
273
     0
  0
XRECORD
  5
51
102
{ACAD_REACTORS
330
50
102
}
330
50
100
AcDbXrecord
102
MATERIAL
148
0.0
149
0.0
149
0.0
 93
        0
 94
      127
282
     0
 72
     1
 77
     1
171
     1
175
     1
179
     1
273
     0
  0
XRECORD
  5
55
102
{ACAD_REACTORS
330
54
102
}
330
54
100
AcDbXrecord
102
MATERIAL
148
0.0
149
0.0
149
0.0
 93
        0
 94
      127
282
     0
 72
     1
 77
     1
171
     1
175
     1
179
     1
273
     0
  0
ENDSEC
  0
EOF
