<?xml version="1.0" encoding="utf-8"?>
<!-- Generator: Adobe Illustrator 18.1.1, SVG Export Plug-In . SVG Version: 6.00 Build 0)  -->
<svg version="1.1" xmlns="http://www.w3.org/2000/svg" xmlns:xlink="http://www.w3.org/1999/xlink" x="0px" y="0px"
	 viewBox="0 0 841.9 595.3" enable-background="new 0 0 841.9 595.3" xml:space="preserve">
<g id="Layer_1">
	<g id="source" xmlns:svg="http://www.w3.org/2000/svg" display="none">
		<g display="inline">
			<g transform="translate(37.64,10.44)">
				<g id="copper0">
					<rect id="square" x="-170.7" y="336.1" fill="none" stroke="#FFBF00" stroke-width="1.44" width="5" height="5"/>
					<circle id="connector0pin" fill="none" stroke="#FFBF00" stroke-width="1.44" cx="-168.2" cy="338.6" r="2.5"/>
					<circle id="connector7pin" fill="none" stroke="#FFBF00" stroke-width="1.44" cx="-141.3" cy="338.6" r="2.5"/>
					<circle id="connector1pin" fill="none" stroke="#FFBF00" stroke-width="1.44" cx="-168.2" cy="347.5" r="2.5"/>
					<circle id="connector6pin" fill="none" stroke="#FFBF00" stroke-width="1.44" cx="-141.3" cy="347.5" r="2.5"/>
					<circle id="connector2pin" fill="none" stroke="#FFBF00" stroke-width="1.44" cx="-168.2" cy="356.4" r="2.5"/>
					<circle id="connector5pin" fill="none" stroke="#FFBF00" stroke-width="1.44" cx="-141.3" cy="356.4" r="2.5"/>
					<circle id="connector3pin" fill="none" stroke="#FFBF00" stroke-width="1.44" cx="-168.2" cy="365.4" r="2.5"/>
					<circle id="connector4pin" fill="none" stroke="#FFBF00" stroke-width="1.44" cx="-141.3" cy="365.4" r="2.5"/>
				</g>
			</g>
		</g>
		<g display="inline">
			<g transform="translate(37.64,10.44)">
				<g id="silkscreen">
					<line fill="none" stroke="#FFFFFF" stroke-width="0.72" x1="-172.6" y1="334.1" x2="-172.6" y2="369.9"/>
					<line fill="none" stroke="#FFFFFF" stroke-width="0.72" x1="-172.6" y1="369.9" x2="-136.9" y2="369.9"/>
					<line fill="none" stroke="#FFFFFF" stroke-width="0.72" x1="-136.9" y1="369.9" x2="-136.9" y2="334.1"/>
					<line fill="none" stroke="#FFFFFF" stroke-width="0.72" x1="-172.6" y1="334.1" x2="-159.2" y2="334.1"/>
					<line fill="none" stroke="#FFFFFF" stroke-width="0.72" x1="-150.3" y1="334.1" x2="-136.9" y2="334.1"/>
				</g>
			</g>
		</g>
		<g display="inline">
			<g>
				<g transform="translate(5.6,36.72)">
					<g transform="matrix(0,-1,1,0,0,0)">
						<g id="copper0_1_">
							
								<rect id="rect11" x="-332.6" y="-165.5" transform="matrix(-2.547107e-06 -1 1 -2.547107e-06 -167.1508 -493.1249)" fill="none" stroke="#FFBF00" stroke-width="1.44" width="5" height="5"/>
							<circle id="connector0pin_1_" fill="none" stroke="#FFBF00" stroke-width="1.44" cx="-330.1" cy="-162.9" r="2.5"/>
							<circle id="connector1pin_1_" fill="none" stroke="#FFBF00" stroke-width="1.44" cx="-312.3" cy="-162.9" r="2.5"/>
						</g>
					</g>
				</g>
			</g>
			<g>
				<g transform="translate(5.6,36.72)">
					<g transform="matrix(0,-1,1,0,0,0)">
						<g id="silkscreen_1_">
							<g id="silk">
								<circle id="circle7" fill="none" stroke="#FFFFFF" stroke-width="0.72" cx="-321.2" cy="-162.9" r="17.9"/>
							</g>
							<g transform="scale(11.111111,11.111111)">
								<path id="path3612" fill="none" stroke="#FFFFFF" stroke-width="7.200000e-02" stroke-linecap="round" d="M-30-15.4h0.4"/>
							</g>
							<g transform="scale(11.111111,11.111111)">
								<path id="path3614" fill="none" stroke="#FFFFFF" stroke-width="7.200000e-02" stroke-linecap="round" d="M-30-13.9h0.4"/>
							</g>
						</g>
					</g>
				</g>
			</g>
		</g>
		<g display="inline">
			<g>
				<g transform="translate(87.86,12.06)">
					<g transform="matrix(0,1,-1,0,0,0)">
						<g id="copper0_2_">
							<g id="copper1">
								<circle id="connector0pin_2_" fill="none" stroke="#FFBF00" stroke-width="1.44" cx="337" cy="164.7" r="2.5"/>
								<circle id="connector1pin_2_" fill="none" stroke="#FFBF00" stroke-width="1.44" cx="363.8" cy="164.7" r="2.5"/>
							</g>
						</g>
					</g>
				</g>
			</g>
			<g>
				<g transform="translate(87.86,12.06)">
					<g transform="matrix(0,1,-1,0,0,0)">
						<g id="silkscreen_2_">
							<line fill="none" stroke="#FFFFFF" stroke-width="0.72" x1="340.3" y1="164.7" x2="343.7" y2="164.7"/>
							<line fill="none" stroke="#FFFFFF" stroke-width="0.72" x1="357.1" y1="164.7" x2="360.4" y2="164.7"/>
							<line fill="none" stroke="#FFFFFF" stroke-width="0.72" x1="343.7" y1="162.5" x2="357.1" y2="162.5"/>
							<line fill="none" stroke="#FFFFFF" stroke-width="0.72" x1="357.1" y1="162.5" x2="357.1" y2="167"/>
							<line fill="none" stroke="#FFFFFF" stroke-width="0.72" x1="357.1" y1="167" x2="343.7" y2="167"/>
							<line fill="none" stroke="#FFFFFF" stroke-width="0.72" x1="343.7" y1="167" x2="343.7" y2="162.5"/>
						</g>
					</g>
				</g>
			</g>
		</g>
	</g>
	<g id="fond">
		<circle fill="#C9C9C9" cx="282.9" cy="237.9" r="52.8"/>
	</g>
	<g>
		<g>
			<g transform="translate(37.64,10.44)">
				<g id="copper0_3_">
					<rect id="square_1_" x="229.4" y="238.3" fill="none" stroke="#FFBF00" stroke-width="1.44" width="5" height="5"/>
					<circle id="connector0pin_3_" fill="none" stroke="#FFBF00" stroke-width="1.44" cx="231.9" cy="240.8" r="2.5"/>
					<circle id="connector7pin_1_" fill="none" stroke="#FFBF00" stroke-width="1.44" cx="231.9" cy="214" r="2.5"/>
					<circle id="connector1pin_3_" fill="none" stroke="#FFBF00" stroke-width="1.44" cx="240.8" cy="240.8" r="2.5"/>
					<circle id="connector6pin_1_" fill="none" stroke="#FFBF00" stroke-width="1.44" cx="240.8" cy="214" r="2.5"/>
					<circle id="connector2pin_1_" fill="none" stroke="#FFBF00" stroke-width="1.44" cx="249.8" cy="240.8" r="2.5"/>
					<circle id="connector5pin_1_" fill="none" stroke="#FFBF00" stroke-width="1.44" cx="249.8" cy="214" r="2.5"/>
					<circle id="connector3pin_1_" fill="none" stroke="#FFBF00" stroke-width="1.44" cx="258.7" cy="240.8" r="2.5"/>
					<circle id="connector4pin_1_" fill="none" stroke="#FFBF00" stroke-width="1.44" cx="258.7" cy="214" r="2.5"/>
				</g>
			</g>
		</g>
		<g>
			<g transform="translate(37.64,10.44)">
				<g id="silkscreen_3_">
					<line fill="none" stroke="#FFFFFF" stroke-width="0.72" x1="227.4" y1="245.3" x2="263.2" y2="245.3"/>
					<line fill="none" stroke="#FFFFFF" stroke-width="0.72" x1="263.2" y1="245.3" x2="263.2" y2="209.5"/>
					<line fill="none" stroke="#FFFFFF" stroke-width="0.72" x1="263.2" y1="209.5" x2="227.4" y2="209.5"/>
					<line fill="none" stroke="#FFFFFF" stroke-width="0.72" x1="227.4" y1="245.3" x2="227.4" y2="231.9"/>
					<line fill="none" stroke="#FFFFFF" stroke-width="0.72" x1="227.4" y1="222.9" x2="227.4" y2="209.5"/>
				</g>
			</g>
		</g>
	</g>
	<g>
		<g>
			<g transform="translate(5.6,36.72)">
				<g transform="matrix(0,-1,1,0,0,0)">
					<g id="copper0_5_">
						
							<rect id="rect11_1_" x="-208.1" y="308.5" transform="matrix(-2.547107e-06 -1 1 -2.547107e-06 -516.6512 105.3922)" fill="none" stroke="#FFBF00" stroke-width="1.44" width="5" height="5"/>
						<circle id="connector0pin_5_" fill="none" stroke="#FFBF00" stroke-width="1.44" cx="-205.6" cy="311.1" r="2.5"/>
						<circle id="connector1pin_5_" fill="none" stroke="#FFBF00" stroke-width="1.44" cx="-187.7" cy="311.1" r="2.5"/>
					</g>
				</g>
			</g>
		</g>
		<g>
			<g transform="translate(5.6,36.72)">
				<g transform="matrix(0,-1,1,0,0,0)">
					<g id="silkscreen_5_">
						<g id="silk_1_">
							<circle id="circle7_1_" fill="none" stroke="#FFFFFF" stroke-width="0.72" cx="-196.6" cy="311.1" r="17.9"/>
						</g>
						<g transform="scale(11.111111,11.111111)">
							<path id="path3612_1_" fill="none" stroke="#FFFFFF" stroke-width="7.200000e-02" stroke-linecap="round" d="M-18.8,27.2h0.4
								"/>
						</g>
						<g transform="scale(11.111111,11.111111)">
							<path id="path3614_1_" fill="none" stroke="#FFFFFF" stroke-width="7.200000e-02" stroke-linecap="round" d="M-18.8,28.8h0.4
								"/>
						</g>
					</g>
				</g>
			</g>
		</g>
	</g>
	<g>
		<g>
			<g transform="translate(87.86,12.06)">
				<g transform="matrix(0,1,-1,0,0,0)">
					<g id="copper0_4_">
						<g id="copper1_1_">
							<circle id="connector0pin_4_" fill="none" stroke="#FFBF00" stroke-width="1.44" cx="212.5" cy="-218.4" r="2.5"/>
							<circle id="connector1pin_4_" fill="none" stroke="#FFBF00" stroke-width="1.44" cx="185.7" cy="-218.4" r="2.5"/>
						</g>
					</g>
				</g>
			</g>
		</g>
		<g>
			<g transform="translate(87.86,12.06)">
				<g transform="matrix(0,1,-1,0,0,0)">
					<g id="silkscreen_4_">
						<line fill="none" stroke="#FFFFFF" stroke-width="0.72" x1="209.1" y1="-218.4" x2="205.8" y2="-218.4"/>
						<line fill="none" stroke="#FFFFFF" stroke-width="0.72" x1="192.4" y1="-218.4" x2="189" y2="-218.4"/>
						<line fill="none" stroke="#FFFFFF" stroke-width="0.72" x1="205.8" y1="-216.2" x2="192.4" y2="-216.2"/>
						<line fill="none" stroke="#FFFFFF" stroke-width="0.72" x1="192.4" y1="-216.2" x2="192.4" y2="-220.7"/>
						<line fill="none" stroke="#FFFFFF" stroke-width="0.72" x1="192.4" y1="-220.7" x2="205.8" y2="-220.7"/>
						<line fill="none" stroke="#FFFFFF" stroke-width="0.72" x1="205.8" y1="-220.7" x2="205.8" y2="-216.2"/>
					</g>
				</g>
			</g>
		</g>
	</g>
	<circle fill="#FFBF00" cx="269.5" cy="186.7" r="8.8"/>
	<circle fill="#FFBF00" cx="296.3" cy="186.7" r="8.8"/>
	<circle fill="#FFBF00" cx="231.6" cy="251.3" r="8.8"/>
	<circle fill="#FFBF00" cx="231.6" cy="224.5" r="8.8"/>
	<circle fill="#FFBF00" cx="269.5" cy="288.8" r="8.8"/>
	<circle fill="#FFBF00" cx="296.3" cy="288.8" r="8.8"/>
	<polyline fill="none" stroke="#000000" stroke-miterlimit="10" points="296.3,185.9 296.3,197.7 306.4,197.7 	"/>
	<polyline fill="none" stroke="#000000" stroke-miterlimit="10" points="278.3,251.3 287.3,224.6 287.3,214 306.4,214 306.4,224.6 
		316.7,224.6 	"/>
	
		<image overflow="visible" width="993" height="1589" xlink:href="../../0Camp/4-Polytime/polytimePCB-double-01-01.png"  transform="matrix(0.12 0 0 0.12 361.365 184.6639)">
	</image>
	<polyline fill="none" stroke="#000000" stroke-miterlimit="10" points="269.5,186.8 269.5,224.4 231.6,224.4 	"/>
	<polyline fill="none" stroke="#000000" stroke-miterlimit="10" points="278.5,224.6 278.5,197.7 296.3,197.7 	"/>
	<polyline fill="none" stroke="#000000" stroke-miterlimit="10" points="231.6,251.3 269.5,251.3 269.5,288.8 	"/>
	<g>
		<g>
			<g transform="translate(5.6,36.72)">
				<g transform="matrix(0,-1,1,0,0,0)">
					<g id="copper0_6_">
						
							<rect id="rect11_2_" x="-233.1" y="297.3" transform="matrix(-2.547107e-06 -1 1 -2.547107e-06 -530.4199 69.1119)" fill="none" stroke="#FFBF00" stroke-width="1.44" width="5" height="5"/>
						<circle id="connector0pin_6_" fill="none" stroke="#FFBF00" stroke-width="1.44" cx="-230.6" cy="299.7" r="2.5"/>
						<circle id="connector1pin_6_" fill="none" stroke="#FFBF00" stroke-width="1.44" cx="-230.6" cy="281.8" r="2.5"/>
					</g>
				</g>
			</g>
		</g>
		<g>
			<g transform="translate(5.6,36.72)">
				<g transform="matrix(0,-1,1,0,0,0)">
					<g id="silkscreen_6_">
						<g id="silk_2_">
							<circle id="circle7_2_" fill="none" stroke="#FFFFFF" stroke-width="0.72" cx="-230.6" cy="290.7" r="17.9"/>
						</g>
						<g transform="scale(11.111111,11.111111)">
							<path id="path3612_2_" fill="none" stroke="#FFFFFF" stroke-width="7.200000e-02" stroke-linecap="round" d="M-21.6,27.2
								v-0.4"/>
						</g>
						<g transform="scale(11.111111,11.111111)">
							<path id="path3614_2_" fill="none" stroke="#FFFFFF" stroke-width="7.200000e-02" stroke-linecap="round" d="M-20,27.2v-0.4"
								/>
						</g>
					</g>
				</g>
			</g>
		</g>
	</g>
	<line fill="none" stroke="#000000" stroke-miterlimit="10" x1="287.4" y1="251.3" x2="287.4" y2="267.4"/>
	<polyline fill="none" stroke="#000000" stroke-miterlimit="10" points="305.1,267.4 305.4,276.4 296.3,288.9 	"/>
	<polyline fill="none" stroke="#000000" stroke-miterlimit="10" points="316.6,242.5 316.6,260.1 296.3,260.1 296.3,276.5 
		269.5,276.5 	"/>
</g>
<g id="Layer_2">
</g>
</svg>
